<?xml version="1.0" encoding="utf-8"?>
<!-- Generator: Adobe Illustrator 19.2.0, SVG Export Plug-In . SVG Version: 6.00 Build 0)  -->
<svg version="1.1" id="Слой_1" xmlns="http://www.w3.org/2000/svg" xmlns:xlink="http://www.w3.org/1999/xlink" x="0px" y="0px"
	 viewBox="0 0 90.4 74.6" style="enable-background:new 0 0 90.4 74.6;" xml:space="preserve">
<style type="text/css">
	.st0{fill:#FFFFFF;}
	.st1{fill:#BF3C30;}
	.st2{fill:#DB4437;}
</style>
<g id="logo">
	<g>
		<g>
			<path class="st0" d="M41.6,31.1c-4.2-0.2-8-0.7-11.2-1.3c-0.1,0-0.1,0-0.2,0c-0.1,0-0.1,0-0.2,0c0,0-0.1,0-0.1,0
				c-0.1,0-0.2,0-0.3,0.1c-0.1,0.1-0.1,0.2-0.1,0.3v13.8c0,0.2,0.2,0.4,0.4,0.4h11.7c0.2,0,0.4-0.2,0.4-0.4V31.5
				C42,31.3,41.8,31.1,41.6,31.1z"/>
			<path class="st0" d="M65.2,29.8c-0.1-0.1-0.2-0.1-0.3-0.1c0,0-0.1,0-0.1,0c-0.1,0-0.1,0-0.2,0c-0.1,0-0.1,0-0.2,0
				c-3.3,0.7-7.1,1.1-11.5,1.3c-0.2,0-0.4,0.2-0.4,0.4v12.4c0,0.2,0.2,0.4,0.4,0.4h11.9c0.2,0,0.4-0.2,0.4-0.4V30.1
				C65.3,30,65.3,29.9,65.2,29.8z"/>
			<path class="st0" d="M41.6,0H29.9c-0.2,0-0.4,0.2-0.4,0.4v18.9c0,0.2,0.1,0.3,0.3,0.4c2.1,0.5,5.7,1.3,10.8,1.7h0.5
				c0,0,0.5,0,0.5,0c0.1,0,0.2,0,0.3-0.1c0.1-0.1,0.1-0.2,0.1-0.3V0.4C42,0.2,41.8,0,41.6,0z"/>
			<path class="st0" d="M53.1,0h11.7c0.2,0,0.4,0.2,0.4,0.4v18.9c0,0.2-0.1,0.3-0.3,0.4c-2.1,0.5-5.7,1.3-10.8,1.7h-0.5
				c0,0-0.5,0-0.5,0c-0.1,0-0.2,0-0.3-0.1c-0.1-0.1-0.1-0.2-0.1-0.3V0.4C52.7,0.2,52.9,0,53.1,0z"/>
			<path class="st1" d="M43.4,18.6C43.4,18.6,43.4,18.6,43.4,18.6c1.4-0.1,2.7-0.1,4-0.1c1.3,0,2.7,0,3.9,0c0,0,0,0,0,0
				c0.1,0,0.2,0,0.3-0.1c0.1-0.1,0.1-0.2,0.1-0.3v-7.1c0-0.2-0.2-0.4-0.4-0.4c-1.6-0.1-3.1,0-4,0c-0.9,0-2.3,0-4,0.1
				c-0.2,0-0.4,0.2-0.4,0.4v7.1c0,0.1,0,0.2,0.1,0.3C43.2,18.6,43.3,18.6,43.4,18.6z"/>
			<path class="st0" d="M36.6,26.2c0-1.7,0.9-3.3,2.3-4.1c-2.9-0.3-5.5-0.7-7.8-1.2c0,0,0,0,0,0c-0.6-0.1-1.1-0.2-1.4-0.3l-0.1,0v0
				c-2.2,0-4,1.8-4,4c0,1.6,0.9,2.9,2.2,3.6c0.6,0.2,1.1,0.3,1.8,0.4c0,0,0,0,0.1,0v0c0.4,0.1,0.7,0.2,1.1,0.2
				c2.5,0.5,5.2,0.8,7.7,1.1C37.2,29,36.6,27.7,36.6,26.2z"/>
			<path class="st0" d="M65.5,28.6c0.4-0.1,0.8-0.2,1.2-0.3c1.5-0.6,2.5-2,2.5-3.7c0-2.1-1.6-3.8-3.7-4c0,0-0.1,0-0.1,0l-0.2,0
				c-0.6,0.1-1.3,0.3-2.5,0.5c0,0,0,0,0,0c-1.6,0.3-3.9,0.7-6.9,1c1.3,0.9,2.2,2.4,2.2,4.1c0,1.5-0.7,2.9-1.8,3.8
				c2.6-0.2,5.4-0.6,8-1.1c0.3-0.1,0.6-0.1,0.9-0.2"/>
			<path class="st2" d="M57.2,26.2c0-1.9-1.3-3.6-3.1-4c-2,0.1-4.2,0.2-6.7,0.2c-2.4,0-4.7-0.1-6.9-0.2c-1.8,0.4-3.2,2-3.2,4
				c0,1.8,1.2,3.4,2.9,3.9c2.9,0.2,5.4,0.2,7.2,0.2c1.7,0,4.1,0,6.9-0.2C56,29.6,57.2,28.1,57.2,26.2z"/>
		</g>
		<path class="st2" d="M25.9,20.1v-0.4c0-3.6-0.9-5.5-1.6-6.1c-4.5,1.7-6.3,4-6.3,6.9c0,3,2.7,5.4,7.4,7.1c-0.6-0.8-1.9-1.8-1.9-3
			C23.5,22.5,23.9,20.7,25.9,20.1z"/>
		<path class="st0" d="M66.3,19.9l0-6.9c0.1-0.3,0.3-0.4,0.7-0.3c0,0,1.1,0.3,2,0.6C68.9,13.3,66.3,15.1,66.3,19.9z"/>
		<path class="st2" d="M66.9,20.2l0-0.5c0.2-3.6,1.9-5.5,2.6-6.1c4.7,1.8,6.8,4,6.8,6.9c0,3.3-2.7,5.5-7.5,7.2
			c0.6-0.8,1.1-1.9,1.1-3C69.9,22.6,68.7,20.9,66.9,20.2z"/>
		<path class="st0" d="M28.6,19.9l0-6.9c-0.1-0.3-0.3-0.4-0.7-0.3c0,0-1.1,0.3-2,0.6C25.9,13.3,28.6,15.1,28.6,19.9z"/>
	</g>
	<g>
		<path class="st0" d="M0,74.6V63.3h2.5v4.4H7v-4.4h2.5v11.2H7v-4.5H2.5v4.5H0z"/>
		<path class="st0" d="M17.5,74.6V63.3h8.5v2.2h-6v2.3h5.3V70h-5.3v2.4H26v2.2H17.5z"/>
		<path class="st0" d="M33.5,74.6V63.3H36v9h5.6v2.2H33.5z"/>
		<path class="st0" d="M48.7,74.6V63.3h4.6c1.3,0,2.4,0.4,3.1,1.1c0.8,0.7,1.2,1.7,1.2,2.8c0,1.2-0.4,2.2-1.3,2.9
			c-0.9,0.7-1.9,1-3.3,1h-1.9v3.4H48.7z M51.2,69h2c0.6,0,1.1-0.2,1.4-0.5s0.5-0.7,0.5-1.2c0-0.5-0.2-1-0.5-1.3
			c-0.4-0.3-0.8-0.4-1.5-0.4h-1.9V69z"/>
		<path class="st0" d="M64.7,74.6V63.3h8.5v2.2h-6v2.3h5.3V70h-5.3v2.4h6.1v2.2H64.7z"/>
		<path class="st0" d="M80.7,74.6V63.3h5.1c1.4,0,2.5,0.4,3.3,1.1c0.6,0.6,1,1.5,1,2.6c0,1.7-0.8,2.9-2.4,3.5l2.7,4h-2.9L85.1,71
			h-1.9v3.6H80.7z M83.2,68.8h2.5c0.6,0,1.1-0.1,1.4-0.4c0.3-0.3,0.5-0.7,0.5-1.2c0-0.5-0.2-0.9-0.5-1.2c-0.3-0.3-0.8-0.4-1.4-0.4
			h-2.5V68.8z"/>
	</g>
</g>
</svg>
