<?xml version="1.0" encoding="utf-8"?>
<!-- Generator: Adobe Illustrator 19.2.0, SVG Export Plug-In . SVG Version: 6.00 Build 0)  -->
<svg version="1.1" id="Слой_1" xmlns="http://www.w3.org/2000/svg" xmlns:xlink="http://www.w3.org/1999/xlink" x="0px" y="0px"
	 viewBox="0 0 84.2 101.9" style="enable-background:new 0 0 84.2 101.9;" xml:space="preserve">
<style type="text/css">
	.st0{fill:#356AC2;}
</style>
<g id="_x30_1_5_">
	<path class="st0" d="M63,57.6c3.5-4.6,5.3-10,5.3-15.8c0-7.1-2.8-13.7-7.8-18.6c-5-5-11.7-7.6-18.7-7.5c-6.8,0.1-13.3,2.8-18.1,7.7
		S16,34.7,15.9,41.6c-0.1,5.9,1.8,11.4,5.3,16.1c5.8,7.6,8.9,16.8,8.9,26v10.1c0,4.5,3.7,8.1,8.1,8.1h7.6c4.5,0,8.1-3.7,8.1-8.1
		V83.7C54,74.3,57.1,65.3,63,57.6L63,57.6z M23.9,55.6c-3.1-4.1-4.7-8.9-4.7-14C19.4,29.3,29.5,19.2,41.8,19
		c6.2-0.1,12,2.2,16.3,6.6c4.4,4.3,6.8,10.1,6.8,16.2c0,5-1.6,9.8-4.6,13.8c-6.2,8.1-9.5,17.6-9.6,27.5H33.5
		C33.4,73.3,30,63.6,23.9,55.6L23.9,55.6z M33.5,92.7v-1.4l17.1,2v0.5c0,0.3,0,0.6-0.1,0.8L33.5,92.7z M33.5,87.9v-1.5h17.1v3.5
		L33.5,87.9z M38.3,98.6c-1.8,0-3.4-1-4.2-2.5l14.4,1.7c-0.8,0.5-1.7,0.8-2.7,0.8H38.3z M38.3,98.6"/>
	<path class="st0" d="M25.5,44.3c-0.1-0.9-0.2-1.8-0.2-2.7c0-0.9-0.7-1.7-1.7-1.7c-0.9,0-1.7,0.7-1.7,1.7c0,1.1,0.1,2.2,0.2,3.2
		c0.1,0.8,0.8,1.4,1.7,1.4c0.1,0,0.2,0,0.2,0C25,46.1,25.6,45.2,25.5,44.3L25.5,44.3z M25.5,44.3"/>
	<path class="st0" d="M35.4,69.8c0.2,0,0.4,0,0.5-0.1c0.9-0.3,1.4-1.2,1.1-2.1c-1.9-5.7-4.6-10.9-8.2-15.7c-0.6-0.8-1.1-1.6-1.6-2.5
		c-0.4-0.8-1.4-1.1-2.3-0.7c-0.8,0.4-1.1,1.4-0.7,2.3c0.5,1,1.2,2,1.9,3c3.4,4.4,6,9.4,7.7,14.7C34,69.4,34.7,69.8,35.4,69.8
		L35.4,69.8z M35.4,69.8"/>
	<path class="st0" d="M59.7,47.5c-0.9-0.4-1.8,0-2.2,0.9c-0.5,1.2-1.2,2.4-2,3.5c-0.6,0.7-0.4,1.8,0.3,2.3c0.3,0.2,0.7,0.3,1,0.3
		c0.5,0,1-0.2,1.3-0.7c1-1.3,1.8-2.7,2.5-4.2C61,48.9,60.6,47.9,59.7,47.5L59.7,47.5z M59.7,47.5"/>
	<path class="st0" d="M42.1,25c9.2,0,16.8,7.5,16.8,16.8c0,0.5,0,1.1-0.1,1.6c-0.1,0.9,0.6,1.7,1.5,1.8c0.1,0,0.1,0,0.2,0
		c0.9,0,1.6-0.7,1.7-1.5c0.1-0.6,0.1-1.3,0.1-1.9c0-11.1-9-20.1-20.1-20.1c-0.9,0-1.7,0.8-1.7,1.7C40.4,24.3,41.2,25,42.1,25
		L42.1,25z M42.1,25"/>
	<path class="st0" d="M42.1,12.7c0.9,0,1.7-0.8,1.7-1.7V1.7C43.8,0.8,43,0,42.1,0s-1.7,0.8-1.7,1.7v9.4C40.4,12,41.2,12.7,42.1,12.7
		L42.1,12.7z M42.1,12.7"/>
	<path class="st0" d="M25.1,16.1c0.3,0.5,0.9,0.8,1.5,0.8c0.3,0,0.6-0.1,0.8-0.2c0.8-0.5,1.1-1.5,0.6-2.3l-4.7-8.1
		c-0.5-0.8-1.5-1.1-2.3-0.6c-0.8,0.5-1.1,1.5-0.6,2.3L25.1,16.1z M25.1,16.1"/>
	<path class="st0" d="M77.9,60.8l-8.1-4.7C69,55.7,68,56,67.5,56.8c-0.5,0.8-0.2,1.8,0.6,2.3l8.1,4.7c0.3,0.2,0.6,0.2,0.8,0.2
		c0.6,0,1.1-0.3,1.5-0.8C79,62.3,78.7,61.3,77.9,60.8L77.9,60.8z M77.9,60.8"/>
	<path class="st0" d="M6.3,23.3l8.1,4.7c0.3,0.2,0.6,0.2,0.8,0.2c0.6,0,1.1-0.3,1.5-0.8c0.5-0.8,0.2-1.8-0.6-2.3l-8.1-4.7
		C7.1,20,6.1,20.2,5.6,21C5.2,21.8,5.5,22.9,6.3,23.3L6.3,23.3z M6.3,23.3"/>
	<path class="st0" d="M82.5,40.4h-9.4c-0.9,0-1.7,0.8-1.7,1.7c0,0.9,0.8,1.7,1.7,1.7h9.4c0.9,0,1.7-0.8,1.7-1.7
		C84.2,41.2,83.4,40.4,82.5,40.4L82.5,40.4z M82.5,40.4"/>
	<path class="st0" d="M12.7,42.1c0-0.9-0.8-1.7-1.7-1.7H1.7c-0.9,0-1.7,0.8-1.7,1.7c0,0.9,0.8,1.7,1.7,1.7h9.4
		C12,43.8,12.7,43,12.7,42.1L12.7,42.1z M12.7,42.1"/>
	<path class="st0" d="M69,28.3c0.3,0,0.6-0.1,0.8-0.2l8.1-4.7c0.8-0.5,1.1-1.5,0.6-2.3c-0.5-0.8-1.5-1.1-2.3-0.6l-8.1,4.7
		c-0.8,0.5-1.1,1.5-0.6,2.3C67.8,28,68.4,28.3,69,28.3L69,28.3z M69,28.3"/>
	<path class="st0" d="M14.4,56.2l-8.1,4.7c-0.8,0.5-1.1,1.5-0.6,2.3C5.9,63.7,6.5,64,7.1,64c0.3,0,0.6-0.1,0.8-0.2l8.1-4.7
		c0.8-0.5,1.1-1.5,0.6-2.3C16.2,56,15.2,55.7,14.4,56.2L14.4,56.2z M14.4,56.2"/>
	<path class="st0" d="M56.8,16.7c0.3,0.2,0.6,0.2,0.8,0.2c0.6,0,1.1-0.3,1.5-0.8l4.7-8.1c0.5-0.8,0.2-1.8-0.6-2.3
		c-0.8-0.5-1.8-0.2-2.3,0.6l-4.7,8.1C55.7,15.2,56,16.2,56.8,16.7L56.8,16.7z M56.8,16.7"/>
</g>
</svg>
