<?xml version="1.0" encoding="utf-8"?>
<!-- Generator: Adobe Illustrator 19.2.0, SVG Export Plug-In . SVG Version: 6.00 Build 0)  -->
<svg version="1.1" id="Слой_1" xmlns="http://www.w3.org/2000/svg" xmlns:xlink="http://www.w3.org/1999/xlink" x="0px" y="0px"
	 viewBox="0 0 87.7 81.1" style="enable-background:new 0 0 87.7 81.1;" xml:space="preserve">
<style type="text/css">
	.st0{fill:#356AC2;}
</style>
<g id="_x30_5">
	<path class="st0" d="M77,46.5l-9.8,9.8l-2.4-2.4c-0.6-0.6-1.5-0.6-2.1,0c-0.6,0.6-0.6,1.5,0,2.1l3.5,3.5c0.3,0.3,0.7,0.4,1.1,0.4
		c0.4,0,0.8-0.1,1-0.4l10.9-10.9c0.6-0.6,0.6-1.5,0-2.1C78.5,45.9,77.5,45.9,77,46.5L77,46.5z M77,46.5"/>
	<path class="st0" d="M39.5,27.3c0.3,0.3,0.7,0.4,1,0.4c0.4,0,0.8-0.2,1-0.4l12-12c0.6-0.6,0.6-1.5,0-2.1c-0.6-0.6-1.5-0.6-2.1,0
		L40.6,24.1l-2.8-2.8c-0.6-0.6-1.5-0.6-2.1,0c-0.6,0.6-0.6,1.5,0,2.1L39.5,27.3z M39.5,27.3"/>
	<path class="st0" d="M24,59.9c-0.6-0.6-1.5-0.6-2.1,0l-6.3,6.3l-1.3-1.3c-0.6-0.6-1.5-0.6-2.1,0c-0.6,0.6-0.6,1.5,0,2.1l2.3,2.3
		c0.3,0.3,0.7,0.4,1.1,0.4c0.4,0,0.8-0.2,1.1-0.4L24,62C24.5,61.4,24.5,60.5,24,59.9L24,59.9z M24,59.9"/>
	<path class="st0" d="M83.2,33.2h-0.4V6.2C82.8,2.8,80,0,76.5,0H7.2C3.8,0,1,2.8,1,6.2v37.1c0,3.4,2.8,6.2,6.3,6.2h29.9l-1.4,4.6
		c-0.7-0.5-1.6-0.8-2.5-0.8H4.5c-2.5,0-4.5,2-4.5,4.5v13.5c0,2.5,2,4.5,4.5,4.5h28.8c2.5,0,4.5-2,4.5-4.5v-0.9h15.1v6.1
		c0,2.5,2,4.5,4.5,4.5h26c2.5,0,4.5-2,4.5-4.5v-39C87.7,35.2,85.7,33.2,83.2,33.2L83.2,33.2z M84.7,37.6V71H55.8V37.6
		c0-0.8,0.7-1.5,1.5-1.5h26C84,36.1,84.7,36.8,84.7,37.6L84.7,37.6z M52.8,53v7.2L51.6,60c-1.2-0.2-2.2-1.2-2.5-2.4l-2-8h5.6V53z
		 M7.2,3h69.3c1.8,0,3.3,1.5,3.3,3.3v26.9H57.2c-2.3,0-4.1,1.7-4.4,3.9H3.9V6.2C3.9,4.4,5.4,3,7.2,3L7.2,3z M7.2,46.6
		c-1.8,0-3.3-1.5-3.3-3.3v-3.3h48.9v6.5H7.2z M3,71.4V57.9c0-0.8,0.7-1.5,1.5-1.5H29v16.5H4.5C3.6,72.9,3,72.2,3,71.4L3,71.4z
		 M34.8,71.4c0,0.8-0.7,1.5-1.5,1.5H32V56.4h1.3c0.8,0,1.5,0.7,1.5,1.5V71.4z M37.7,67.5v-9.7c0-0.2,0-0.4-0.1-0.6
		c0.2-0.2,0.4-0.4,0.5-0.7l2.1-7.1h3.9l2.1,8.7c0.6,2.3,2.5,4.2,4.8,4.6l1.7,0.3v4.3H37.7z M83.2,78.1h-26c-0.8,0-1.5-0.7-1.5-1.5
		v-2.7h28.9v2.7C84.7,77.4,84,78.1,83.2,78.1L83.2,78.1z M83.2,78.1"/>
</g>
</svg>
