<?xml version="1.0" encoding="utf-8"?>
<!-- Generator: Adobe Illustrator 19.2.0, SVG Export Plug-In . SVG Version: 6.00 Build 0)  -->
<svg version="1.1" id="Слой_1" xmlns="http://www.w3.org/2000/svg" xmlns:xlink="http://www.w3.org/1999/xlink" x="0px" y="0px"
	 viewBox="0 0 87 97.7" style="enable-background:new 0 0 87 97.7;" xml:space="preserve">
<style type="text/css">
	.st0{fill:#356AC2;}
</style>
<g id="_x30_3_5_">
	<path class="st0" d="M53.1,32.6c6.4,1.7,11.3,6.9,12.4,13.5c0.1,0.7,0.8,1.3,1.5,1.3c0.1,0,0.2,0,0.3,0c0.8-0.1,1.4-0.9,1.3-1.8
		c-1.3-7.7-7-14-14.6-15.9c-0.8-0.2-1.7,0.3-1.9,1.1C51.8,31.6,52.3,32.4,53.1,32.6L53.1,32.6z M53.1,32.6"/>
	<path class="st0" d="M25.7,80.7c1.2-1.2,1.8-2.7,1.8-4.3c0-1.1-0.3-2.2-0.8-3.1l5-5c4.6,4.1,10.6,6.6,17.2,6.6
		c14.3,0,26-11.6,26-26c0-14.3-11.6-26-26-26c-14.3,0-26,11.6-26,26c0,6.6,2.5,12.6,6.6,17.2l-5,5c-0.9-0.6-2-0.8-3.1-0.8
		c-1.6,0-3.2,0.6-4.3,1.8L1.8,87.3C0.6,88.5,0,90,0,91.6c0,1.6,0.6,3.2,1.8,4.3c1.2,1.2,2.8,1.8,4.3,1.8c1.6,0,3.1-0.6,4.3-1.8
		L25.7,80.7L25.7,80.7L25.7,80.7z M48.9,26c12.6,0,22.9,10.3,22.9,22.9c0,12.6-10.3,22.9-22.9,22.9C36.2,71.8,26,61.5,26,48.9
		C26,36.2,36.2,26,48.9,26L48.9,26z M23.5,78.5L8.3,93.8c-1.2,1.2-3.1,1.2-4.3,0c-0.6-0.6-0.9-1.3-0.9-2.2c0-0.8,0.3-1.6,0.9-2.2
		l15.3-15.3c0.6-0.6,1.3-0.9,2.2-0.9c0.8,0,1.6,0.3,2.2,0.9c0.6,0.6,0.9,1.3,0.9,2.2C24.4,77.2,24.1,77.9,23.5,78.5L23.5,78.5z
		 M23.5,78.5"/>
	<path class="st0" d="M87,21.2C87,21.2,87,21.2,87,21.2c0-0.1,0-0.1,0-0.1c0,0,0,0,0-0.1c0,0,0,0,0-0.1c0,0,0,0,0-0.1c0,0,0,0,0-0.1
		c0,0,0,0,0-0.1c0,0,0,0,0-0.1c0,0,0,0,0-0.1c0,0,0,0,0-0.1c0,0,0,0,0-0.1c0,0,0,0,0-0.1c0,0-0.1-0.1-0.1-0.1c0,0,0,0,0,0L66.7,0.4
		c0,0,0,0,0,0c0,0-0.1-0.1-0.2-0.1c0,0,0,0,0,0c-0.1,0-0.1-0.1-0.2-0.1c0,0,0,0,0,0c-0.1,0-0.1-0.1-0.2-0.1c0,0,0,0,0,0
		C66.1,0.1,66,0,66,0c0,0,0,0,0,0c-0.1,0-0.1,0-0.2,0c0,0,0,0-0.1,0c0,0,0,0-0.1,0H15.3c-2.5,0-4.6,2.1-4.6,4.6v65.7
		c0,0.8,0.7,1.5,1.5,1.5c0.8,0,1.5-0.7,1.5-1.5V4.6c0-0.8,0.7-1.5,1.5-1.5h48.9v15.3c0,2.5,2.1,4.6,4.6,4.6h9.2
		c0.8,0,1.5-0.7,1.5-1.5c0-0.8-0.7-1.5-1.5-1.5h-9.2c-0.8,0-1.5-0.7-1.5-1.5V5.2L84,22v71.1c0,0.8-0.7,1.5-1.5,1.5H16.8
		c-0.8,0-1.5,0.7-1.5,1.5c0,0.8,0.7,1.5,1.5,1.5h65.7c2.5,0,4.6-2.1,4.6-4.6V21.4C87,21.3,87,21.3,87,21.2L87,21.2z M87,21.2"/>
	<path class="st0" d="M62.6,48.9c0-0.8-0.7-1.5-1.5-1.5H30.5c-0.8,0-1.5,0.7-1.5,1.5c0,0.8,0.7,1.5,1.5,1.5h30.5
		C61.9,50.4,62.6,49.7,62.6,48.9L62.6,48.9z M62.6,48.9"/>
	<path class="st0" d="M64.1,55h-29c-0.8,0-1.5,0.7-1.5,1.5c0,0.8,0.7,1.5,1.5,1.5h29c0.8,0,1.5-0.7,1.5-1.5C65.7,55.7,65,55,64.1,55
		L64.1,55z M64.1,55"/>
	<path class="st0" d="M35.1,42.8H58c0.8,0,1.5-0.7,1.5-1.5c0-0.8-0.7-1.5-1.5-1.5H35.1c-0.8,0-1.5,0.7-1.5,1.5
		C33.6,42.1,34.3,42.8,35.1,42.8L35.1,42.8z M35.1,42.8"/>
</g>
</svg>
