<?xml version="1.0" encoding="utf-8"?>
<!-- Generator: Adobe Illustrator 19.2.0, SVG Export Plug-In . SVG Version: 6.00 Build 0)  -->
<svg version="1.1" id="Слой_1" xmlns="http://www.w3.org/2000/svg" xmlns:xlink="http://www.w3.org/1999/xlink" x="0px" y="0px"
	 viewBox="0 0 84.4 66" style="enable-background:new 0 0 84.4 66;" xml:space="preserve">
<style type="text/css">
	.st0{fill:#356AC2;}
</style>
<g id="_x30_1_1_">
	<path class="st0" d="M66,7.9h2.6c0.7,0,1.3-0.6,1.3-1.3c0-0.7-0.6-1.3-1.3-1.3H66c-0.7,0-1.3,0.6-1.3,1.3C64.6,7.3,65.2,7.9,66,7.9
		L66,7.9z M66,7.9"/>
	<path class="st0" d="M6.6,7.9h54.1c0.7,0,1.3-0.6,1.3-1.3c0-0.7-0.6-1.3-1.3-1.3H6.6c-0.7,0-1.3,0.6-1.3,1.3
		C5.3,7.3,5.9,7.9,6.6,7.9L6.6,7.9z M6.6,7.9"/>
	<path class="st0" d="M81.8,29.2V6.6c0-3.6-3-6.6-6.6-6.6H6.6C3,0,0,3,0,6.6v52.8C0,63,3,66,6.6,66h68.6c3.6,0,6.6-3,6.6-6.6V47.3
		c1.5-0.5,2.6-2,2.6-3.7V33C84.4,31.3,83.3,29.8,81.8,29.2L81.8,29.2z M6.6,2.6h68.6c2.2,0,4,1.8,4,4v0c-1.1-0.8-2.5-1.3-4-1.3h-1.3
		c-0.7,0-1.3,0.6-1.3,1.3c0,0.7,0.6,1.3,1.3,1.3h1.3c2.2,0,4,1.8,4,4v0c-1.1-0.8-2.5-1.3-4-1.3H6.6c-2.2,0-4-1.8-4-4
		C2.6,4.4,4.4,2.6,6.6,2.6L6.6,2.6z M75.2,63.3H6.6c-2.2,0-4-1.8-4-4V11.9c1.1,0.8,2.5,1.3,4,1.3h68.6c2.2,0,4,1.8,4,4V29H63.3
		c-2.9,0-5.3,2.4-5.3,5.3v7.9c0,2.9,2.4,5.3,5.3,5.3h15.8v11.9C79.1,61.5,77.4,63.3,75.2,63.3L75.2,63.3z M81.8,43.5
		c0,0.7-0.6,1.3-1.3,1.3H63.3c-1.5,0-2.6-1.2-2.6-2.6v-7.9c0-1.5,1.2-2.6,2.6-2.6h17.1c0,0,0,0,0,0c0,0,0,0,0,0
		c0.7,0,1.3,0.6,1.3,1.3V43.5z M81.8,43.5"/>
	<path class="st0" d="M71.2,36.9c-0.7,0-1.3,0.6-1.3,1.3c0,0.7-0.6,1.3-1.3,1.3c-0.7,0-1.3-0.6-1.3-1.3c0-0.7,0.6-1.3,1.3-1.3
		c0.7,0,1.3-0.6,1.3-1.3c0-0.7-0.6-1.3-1.3-1.3c-2.2,0-4,1.8-4,4c0,2.2,1.8,4,4,4c2.2,0,4-1.8,4-4C72.5,37.5,72,36.9,71.2,36.9
		L71.2,36.9z M71.2,36.9"/>
</g>
</svg>
