<?xml version="1.0" encoding="utf-8"?>
<!-- Generator: Adobe Illustrator 19.2.0, SVG Export Plug-In . SVG Version: 6.00 Build 0)  -->
<svg version="1.1" id="Слой_1" xmlns="http://www.w3.org/2000/svg" xmlns:xlink="http://www.w3.org/1999/xlink" x="0px" y="0px"
	 viewBox="0 0 102.3 88.8" style="enable-background:new 0 0 102.3 88.8;" xml:space="preserve">
<style type="text/css">
	.st0{fill:#356AC2;}
</style>
<path id="_x30_2" class="st0" d="M100.3,22.9L79.5,2c-1.3-1.3-3.1-2-4.9-2s-3.6,0.7-4.9,2l-4.9,4.9c-0.8,0.8-1.3,1.6-1.6,2.6
	L40.2,5.4c0,0,0,0,0,0c-10.3-2-20.4,4.7-22.4,15l-1.1,5.2c-1.2,5.8,2.6,11.4,8.4,12.6c5.8,1.2,11.4-2.6,12.6-8.4l0.6-3.2l10.3,0.9
	l26.8,26.8l4.9,4.9c1,1,1,2.6,0,3.6c-1,1-2.6,1-3.6,0l-13-13c-0.9-0.9-2.4-0.9-3.3,0c-0.9,0.9-0.9,2.4,0,3.3l13,13
	c0.5,0.5,0.7,1.1,0.7,1.8c0,0.7-0.3,1.3-0.7,1.8c-1,1-2.6,1-3.6,0l-13-13c-0.9-0.9-2.4-0.9-3.3,0c-0.9,0.9-0.9,2.4,0,3.3l13,13
	c1,1,1,2.6,0,3.6c-0.5,0.5-1.1,0.7-1.8,0.7c-0.7,0-1.3-0.3-1.8-0.7l-13-13c-0.9-0.9-2.4-0.9-3.3,0c-0.9,0.9-0.9,2.4,0,3.3l13,13
	c1,1,1,2.6,0,3.6c-1,1-2.6,1-3.6,0L4,31.2c-0.9-0.9-2.4-0.9-3.3,0c-0.9,0.9-0.9,2.4,0,3.3l12.7,12.7l-3.7,3.7
	c-1.2,1.2-1.9,2.8-1.9,4.5c0,1.7,0.7,3.3,1.9,4.5l1.2,1.2c1,1,2.4,1.7,3.8,1.8c0.1,1.5,0.8,2.8,1.8,3.8l1.2,1.2
	c1.1,1.1,2.4,1.7,3.8,1.8c0.1,1.5,0.8,2.8,1.8,3.8l1.2,1.2c1,1,2.4,1.7,3.8,1.8c0.1,1.5,0.8,2.8,1.8,3.8l1.2,1.2
	c1.2,1.2,2.9,1.9,4.5,1.9c1.6,0,3.2-0.6,4.5-1.9l3.7-3.6l8.7,8.7c1.4,1.4,3.2,2.1,5.1,2.1c1.9,0,3.7-0.7,5.1-2.1
	c1.3-1.3,2-3,2.1-4.8c1.8-0.1,3.5-0.8,4.8-2.1c1.3-1.3,2-3,2.1-4.8c1.7-0.1,3.4-0.8,4.8-2.1c1.3-1.3,2-3,2.1-4.8
	c1.7-0.1,3.5-0.8,4.8-2.1c2.8-2.8,2.8-7.3,0-10.1l-3.2-3.2l11.8-11.8l8.2-8.2C103,30,103,25.6,100.3,22.9L100.3,22.9z M13,56.5
	c-0.7-0.7-0.7-1.7,0-2.4l3.4-3.4l3.6,3.6l-3.4,3.4c-0.7,0.7-1.7,0.7-2.4,0L13,56.5z M19.9,63.4c-0.7-0.7-0.7-1.7,0-2.4l3.4-3.4
	l3.6,3.6l-3.4,3.4c-0.7,0.7-1.7,0.7-2.4,0L19.9,63.4z M26.7,70.2c-0.3-0.3-0.5-0.7-0.5-1.2c0-0.4,0.2-0.9,0.5-1.2l3.4-3.4l3.6,3.6
	l-3.4,3.4c-0.7,0.7-1.7,0.7-2.4,0L26.7,70.2z M37.2,78.3c-0.7,0.7-1.7,0.7-2.4,0l-1.2-1.2c-0.7-0.7-0.7-1.7,0-2.4l3.4-3.4l3.6,3.6
	L37.2,78.3z M77,49.4L51.3,23.7c-0.4-0.4-0.9-0.6-1.4-0.7l-13.2-1.2c-0.1,0-0.1,0-0.2,0c-1.1,0-2.1,0.8-2.3,1.9l-1.1,5.2
	c-0.7,3.3-3.9,5.4-7.1,4.7c-1.6-0.3-3-1.2-3.9-2.6c-0.9-1.4-1.2-3-0.9-4.6l1.1-5.2c1.6-7.8,9.2-12.9,17-11.3c0,0,0,0,0,0l22.6,4
	l25.3,25.3L77,49.4z M97,29.5L90.5,36L68,13.5c-0.4-0.4-0.7-1-0.7-1.7c0-0.6,0.2-1.2,0.7-1.7l4.9-4.9c0.4-0.4,1-0.7,1.7-0.7
	c0.6,0,1.2,0.2,1.7,0.7L97,26.2c0.4,0.4,0.7,1,0.7,1.7C97.7,28.4,97.5,29,97,29.5L97,29.5z M97,29.5"/>
</svg>
