<?xml version="1.0" encoding="utf-8"?>
<!-- Generator: Adobe Illustrator 19.2.0, SVG Export Plug-In . SVG Version: 6.00 Build 0)  -->
<svg version="1.1" id="Слой_1" xmlns="http://www.w3.org/2000/svg" xmlns:xlink="http://www.w3.org/1999/xlink" x="0px" y="0px"
	 viewBox="0 0 69.2 68.2" style="enable-background:new 0 0 69.2 68.2;" xml:space="preserve">
<style type="text/css">
	.st0{fill:#356AC2;}
</style>
<path id="_x30_6" class="st0" d="M45,34.4c-0.7-0.4-1.7-0.8-3-1.1c1.2-0.4,2.2-0.9,2.9-1.6c0.7-0.6,1.3-1.4,1.7-2.2
	c0.4-0.8,0.6-1.7,0.6-2.6c0-1.3-0.4-2.4-1.1-3.5c-0.7-1.1-1.8-1.9-3.2-2.4c-0.5-0.2-1.2-0.4-1.9-0.5v-4.9h-4.7v4.6h-3v-4.6h-4.7v4.6
	h-7.2v3.8h1.1c0.7,0,1.2,0.1,1.5,0.2c0.3,0.1,0.4,0.3,0.6,0.5c0.1,0.2,0.2,0.7,0.2,1.6v15.5c0,0.8,0,1.3-0.2,1.6
	c-0.1,0.2-0.3,0.4-0.6,0.5c-0.3,0.1-0.7,0.2-1.5,0.2h-1.1V48h7.2v4.6h4.7V48H36c0.1,0,0.2,0,0.3,0v4.6H41v-5
	c0.8-0.2,1.5-0.3,2.1-0.6c1.6-0.6,2.9-1.6,3.8-2.8c0.9-1.2,1.3-2.6,1.3-4.1c0-1.2-0.3-2.4-0.9-3.4C46.7,35.8,46,35,45,34.4L45,34.4z
	 M31.6,24.7h3c1.8,0,3,0.1,3.7,0.3c0.7,0.2,1.2,0.6,1.6,1.1c0.4,0.5,0.6,1.1,0.6,1.9c0,0.7-0.2,1.3-0.6,1.9c-0.4,0.5-1,0.9-1.7,1.2
	c-0.8,0.3-1.9,0.4-3.5,0.4h-3V24.7z M40.2,41.9c-0.5,0.7-1.2,1.1-2,1.4c-0.8,0.2-1.7,0.3-2.9,0.3h-2c-0.7,0-1.1,0-1.2-0.1
	c-0.2-0.1-0.3-0.2-0.3-0.4c-0.1-0.2-0.1-0.7-0.1-1.5v-6h3.6c1.6,0,2.7,0.1,3.5,0.4c0.8,0.3,1.3,0.7,1.7,1.3c0.4,0.6,0.6,1.3,0.6,2.1
	C41,40.3,40.7,41.2,40.2,41.9L40.2,41.9z M66.4,21.8c0.7-0.6,1.3-1.3,1.7-2.2c1.1-2,1.3-4.2,0.7-6.4c-1-3.5-4.3-6-8-6
	c-0.8,0-1.6,0.1-2.4,0.4c-0.5,0.2-1.1,0.4-1.5,0.6C45.1-1.9,27.9-2.8,15.2,6.1C2.5,15-2.6,31.3,2.8,45.8c-2.3,2.1-3.4,5.4-2.4,8.5
	c1,3.5,4.3,6,8,6c0.8,0,1.6-0.1,2.4-0.3c0.5-0.1,1-0.3,1.4-0.6c0.1,0.2,0.2,0.3,0.4,0.5c6.4,5.5,14.3,8.2,22.2,8.2
	c6.8,0,13.6-2,19.5-6.1C67,53.2,72.1,36.8,66.6,22.2C66.6,22,66.5,21.9,66.4,21.8L66.4,21.8z M59.4,11.1c0.4-0.1,0.9-0.2,1.3-0.2
	c2.1,0,3.9,1.4,4.5,3.4c0.4,1.2,0.2,2.5-0.4,3.6c-0.6,1.1-1.6,1.9-2.8,2.3c-2.5,0.7-5.1-0.8-5.9-3.2c-0.4-1.2-0.2-2.5,0.4-3.6
	C57.2,12.2,58.2,11.4,59.4,11.1L59.4,11.1z M9.7,56.5c-2.5,0.7-5.1-0.8-5.9-3.2c-0.7-2.5,0.7-5.1,3.2-5.9c0.4-0.1,0.9-0.2,1.3-0.2
	c2.1,0,3.9,1.4,4.5,3.4c0.4,1.2,0.2,2.5-0.4,3.6C11.9,55.4,10.9,56.2,9.7,56.5L9.7,56.5z M52.1,59.1c-11.4,7.9-26.7,7.2-37.2-1.9
	l0,0c0.3-0.4,0.6-0.7,0.8-1.2c1.1-2,1.3-4.2,0.7-6.4c-1-3.5-4.3-6-8-6c-0.8,0-1.6,0.1-2.4,0.3c0,0,0,0,0,0
	C1.6,31.2,6.1,16.9,17.3,9.1C28.5,1.3,43.6,2,54.1,10.7c-0.2,0.3-0.5,0.6-0.6,1c-1.1,2-1.3,4.2-0.7,6.4c1,3.5,4.3,6,8,6
	c0.8,0,1.6-0.1,2.4-0.3c0,0,0.1,0,0.1,0C68,36.6,63.5,51.1,52.1,59.1L52.1,59.1z M52.1,59.1"/>
</svg>
