<?xml version="1.0" encoding="utf-8"?>
<!-- Generator: Adobe Illustrator 19.2.0, SVG Export Plug-In . SVG Version: 6.00 Build 0)  -->
<svg version="1.1" id="Слой_1" xmlns="http://www.w3.org/2000/svg" xmlns:xlink="http://www.w3.org/1999/xlink" x="0px" y="0px"
	 viewBox="0 0 84.8 87.1" style="enable-background:new 0 0 84.8 87.1;" xml:space="preserve">
<style type="text/css">
	.st0{fill:#356AC2;}
</style>
<g id="_x30_2_2_">
	<path class="st0" d="M47.4,57.8l0-1.7c4.2-0.9,7.3-4.7,7.3-9.2c0-4.5-3.1-8.3-7.2-9.3l0-10.1c2.1,0.8,4.1,2.4,4.8,3.2
		c0.8,0.9,2.2,0.9,3.1,0.1c0.9-0.8,0.9-2.2,0.1-3.1c-0.2-0.2-3.6-3.8-8-4.7l0-1.7c0-1.2-1-2.2-2.2-2.2c-1.2,0-2.2,1-2.2,2.2l0,1.8
		c-4.1,1-7.1,4.7-7.1,9.2c0,4.4,3,8.2,7.1,9.2l0,9.9c-2.1-1-4-3-4.7-3.8c-0.8-0.9-2.1-1.1-3.1-0.3c-0.9,0.8-1,2.1-0.3,3.1
		c0.4,0.5,3.8,4.5,8.1,5.7l0,1.8c0,1.2,1,2.2,2.2,2.2C46.4,59.9,47.4,59,47.4,57.8L47.4,57.8z M50.4,46.8c0,2.1-1.2,3.8-2.9,4.6
		l0-9.3C49.2,43,50.4,44.8,50.4,46.8L50.4,46.8z M40.4,32.2c0-2,1.1-3.7,2.8-4.6l0,9.1C41.5,35.9,40.4,34.2,40.4,32.2L40.4,32.2z
		 M40.4,32.2"/>
	<path class="st0" d="M41,78.8c0.1,0,0.2,0,0.2,0c0.5,0,1.1-0.2,1.5-0.6c0.5-0.4,0.7-1,0.7-1.6l0.1-12.6c0-1.1-0.8-2-1.8-2.2
		c-9.7-1.6-17.4-9.5-18.8-19.2c-0.1-1.1-1.1-1.9-2.1-1.9L8.2,40.7c-0.6,0-1.2,0.3-1.6,0.7c-0.4,0.5-0.6,1.1-0.6,1.7
		C7.7,61.7,22.4,76.7,41,78.8L41,78.8z M18.9,45.1c1.1,5,3.5,9.6,7.1,13.3c3.6,3.7,8.1,6.3,13.1,7.4l0,8.3
		c-14.6-2.6-26-14.3-28.4-29L18.9,45.1z M18.9,45.1"/>
	<path class="st0" d="M9.3,64c-0.6-1-1.9-1.4-3-0.8c-1,0.6-1.4,1.9-0.8,3c0.1,0.1,0.1,0.2,0.2,0.3c0.4,0.7,1.1,1,1.9,1.1
		c0.4,0,0.8-0.1,1.1-0.3c1-0.6,1.4-2,0.7-3L9.3,64z M9.3,64"/>
	<path class="st0" d="M2.4,51.7c1.2-0.1,2.1-1.2,2-2.4l0-0.3c-0.1-1.2-1.2-2.1-2.4-2c-1.2,0.1-2.1,1.2-2,2.4l0,0.3
		c0.1,1.1,1.1,2,2.2,2C2.3,51.7,2.3,51.7,2.4,51.7L2.4,51.7z M2.4,51.7"/>
	<path class="st0" d="M6.1,57L6,56.8c-0.4-1.1-1.6-1.8-2.8-1.4c-1.1,0.4-1.8,1.6-1.4,2.8l0.1,0.3c0.3,0.9,1.1,1.5,2,1.5
		c0.2,0,0.5,0,0.7-0.1C5.8,59.4,6.4,58.2,6.1,57L6.1,57z M6.1,57"/>
	<path class="st0" d="M42.5,82.7l-0.1,0c-1.2,0-2.2,1-2.2,2.2c0,1.2,1,2.2,2.2,2.2l0.1,0c1.2,0,2.2-1,2.2-2.1
		C44.7,83.7,43.7,82.7,42.5,82.7L42.5,82.7z M42.5,82.7"/>
	<path class="st0" d="M34.7,82l-0.3-0.1c-1.2-0.2-2.3,0.5-2.6,1.7c-0.2,1.2,0.5,2.3,1.7,2.6l0.3,0.1c0.1,0,0.3,0,0.4,0
		c1,0,1.9-0.7,2.1-1.8C36.7,83.4,35.9,82.2,34.7,82L34.7,82z M34.7,82"/>
	<path class="st0" d="M27.1,79.6l-0.3-0.1c-1.1-0.5-2.4,0-2.9,1.1c-0.5,1.1,0,2.4,1.1,2.9l0.3,0.1c0.3,0.1,0.6,0.2,0.8,0.2
		c0.8,0,1.7-0.5,2-1.3C28.7,81.4,28.2,80.1,27.1,79.6L27.1,79.6z M27.1,79.6"/>
	<path class="st0" d="M14,70.4c-0.8-0.9-2.2-0.9-3.1-0.1c-0.9,0.8-0.9,2.2-0.1,3.1l0.2,0.2c0.4,0.5,1,0.7,1.6,0.7
		c0.5,0,1.1-0.2,1.5-0.6c0.9-0.8,0.9-2.2,0.1-3.1L14,70.4z M14,70.4"/>
	<path class="st0" d="M20.2,75.8l-0.2-0.2c-1-0.7-2.3-0.5-3,0.5c-0.7,1-0.5,2.3,0.5,3l0.3,0.2c0.4,0.3,0.8,0.4,1.2,0.4
		c0.7,0,1.4-0.3,1.8-0.9C21.4,77.8,21.2,76.5,20.2,75.8L20.2,75.8z M20.2,75.8"/>
	<path class="st0" d="M45.5,0c-10,0-19.6,3.7-26.9,10.5C11.3,17.2,6.8,26.4,6,36.3c0,0.6,0.2,1.2,0.6,1.6c0.4,0.4,1,0.7,1.6,0.7
		l12.5,0.1c1.1,0,2-0.8,2.2-1.9c1.3-11.5,11.1-20.1,22.6-20C57.9,16.9,68,27.1,68,39.6C67.9,51,59.4,60.6,48.2,62
		c-1.1,0.1-1.9,1.1-1.9,2.1l-0.1,12.5c0,0.6,0.3,1.2,0.7,1.6c0.4,0.4,0.9,0.6,1.5,0.6c0.1,0,0.1,0,0.2,0c9.8-0.8,18.9-5.2,25.7-12.5
		c6.8-7.3,10.5-16.8,10.6-26.7C84.9,17.9,67.3,0.1,45.5,0L45.5,0z M50.5,74.3l0-8.2c12.5-2.5,21.7-13.5,21.8-26.4
		c0.1-14.9-12-27.1-26.9-27.2c-13.1-0.1-24.2,9.2-26.7,21.9l-8.2,0C13.1,17.3,28,4.3,45.5,4.4c19.3,0.1,35,15.9,34.9,35.3
		C80.3,57,67.4,71.7,50.5,74.3L50.5,74.3z M50.5,74.3"/>
</g>
</svg>
