<?xml version="1.0" encoding="utf-8"?>
<!-- Generator: Adobe Illustrator 19.2.0, SVG Export Plug-In . SVG Version: 6.00 Build 0)  -->
<svg version="1.1" id="Слой_1" xmlns="http://www.w3.org/2000/svg" xmlns:xlink="http://www.w3.org/1999/xlink" x="0px" y="0px"
	 viewBox="0 0 79.5 68" style="enable-background:new 0 0 79.5 68;" xml:space="preserve">
<style type="text/css">
	.st0{fill:#356AC2;}
</style>
<g id="_x30_4">
	<path class="st0" d="M63.9,68c-0.4,0-0.7-0.1-1-0.4L46.8,54H11.1C5,54,0,49,0,42.8V11.1C0,5,5,0,11.1,0h57.4
		c6.1,0,11.1,5,11.1,11.1v31.7c0,6.1-5,11.1-11.1,11.1h-2.9v12.4c0,0.6-0.4,1.2-0.9,1.5C64.4,68,64.1,68,63.9,68L63.9,68z M11.1,3.2
		c-4.3,0-7.8,3.5-7.8,7.9v31.7c0,4.3,3.5,7.9,7.8,7.9h36.3c0.4,0,0.7,0.1,1,0.4l13.9,11.8V52.3c0-0.9,0.7-1.6,1.6-1.6h4.5
		c4.3,0,7.8-3.5,7.8-7.9V11.1c0-4.3-3.5-7.9-7.8-7.9H11.1z M11.1,3.2"/>
	<path class="st0" d="M65.8,18.2h-52c-0.9,0-1.6-0.7-1.6-1.6c0-0.9,0.7-1.6,1.6-1.6h52c0.9,0,1.6,0.7,1.6,1.6
		C67.4,17.4,66.6,18.2,65.8,18.2L65.8,18.2z M65.8,18.2"/>
	<path class="st0" d="M65.8,28.6h-52c-0.9,0-1.6-0.7-1.6-1.6c0-0.9,0.7-1.6,1.6-1.6h52c0.9,0,1.6,0.7,1.6,1.6
		C67.4,27.8,66.6,28.6,65.8,28.6L65.8,28.6z M65.8,28.6"/>
	<path class="st0" d="M65.8,39h-52c-0.9,0-1.6-0.7-1.6-1.6s0.7-1.6,1.6-1.6h52c0.9,0,1.6,0.7,1.6,1.6S66.6,39,65.8,39L65.8,39z
		 M65.8,39"/>
</g>
</svg>
