<?xml version="1.0" encoding="utf-8"?>
<!-- Generator: Adobe Illustrator 19.2.0, SVG Export Plug-In . SVG Version: 6.00 Build 0)  -->
<svg version="1.1" id="Слой_1" xmlns="http://www.w3.org/2000/svg" xmlns:xlink="http://www.w3.org/1999/xlink" x="0px" y="0px"
	 viewBox="0 0 110.9 90.5" style="enable-background:new 0 0 110.9 90.5;" xml:space="preserve">
<style type="text/css">
	.st0{fill:#356AC2;}
</style>
<g id="_x30_3">
	<path class="st0" d="M102.1,44.9L110,31c0.5-1,0.5-2,0-2.5c-0.5-1-1-1-2-1H92.6V16.1c0-0.5-0.5-1.5-1-2c-0.5-0.5-1-0.5-2-0.5
		c0,0-8.9,0.5-17.9-3.5c-9.4-4-14.4-8.9-14.4-9.4c-1-1-2.5-1-3.5,0c0,0-8.4,6.9-15.4,9.9c-6,2.5-14.9,2.5-17.4,2.5h-1
		c-0.5,0-1.5,0-2,0.5v13.9H2.4c-1,0-2,0.5-2,1c-0.5,1-0.5,2,0,2.5l8.4,13.4L0.9,58.3c-0.5,1-0.5,1.5,0,2.5c0.5,1,1.5,1,2,1h17.4
		c6,11.4,26.3,28.8,35.2,28.8c9.4,0,29.3-18.8,35.2-29.3c0.5,0.5,1,1,2,1h15.9c1,0,2-0.5,2-1.5c0.5-1,0.5-2,0-2.5L102.1,44.9z
		 M7.3,57.3l6.4-11.4c0.5-1,0.5-2,0-2.5L6.8,32.5h11.4v24.8H7.3z M87.7,56.3c0,6-24.3,29.8-32.2,29.8S23.2,63.7,23.2,56.3V18.6
		c4-0.5,11.9-1,17.9-3.5c5.5-2.5,11.9-6.9,14.9-9.4c2.5,2,7.4,5.5,14.4,8.9c6.9,3,13.9,3.5,17.4,4V56.3z M92.6,57.3V32.5h10.9
		l-6.4,11.4c-0.5,1-0.5,2,0,2.5l6.9,10.9L92.6,57.3L92.6,57.3z M92.6,57.3"/>
	<path class="st0" d="M56.9,14.1c-1-1-2.5-1-3,0c0,0-6,4.5-10.4,6.9c-4,1.5-10.4,1.5-12.4,1.5h-0.5c-0.5,0-1.5,0-2,0.5
		c-0.5,0.5-0.5,1.5-0.5,2v27.8c0,6.9,19.3,24.8,27.3,24.8c7.4,0,27.3-17.9,27.3-24.8V25.1c0-0.5-0.5-1.5-1-2c-0.5-0.5-1-0.5-2-0.5
		c0,0-6.4,0.5-12.4-2C60.9,17.6,56.9,14.1,56.9,14.1L56.9,14.1z M77.8,52.8c-0.5,4-17.4,19.8-22.3,19.8c-5.5,0-22.3-15.9-22.3-19.8
		V27.5c3.5,0,8.4-0.5,12.4-2c4-1.5,7.9-4.5,9.9-6.4c2,1.5,5.5,4,9.9,6c4.5,2,9.4,2.5,12.4,2.5V52.8z M77.8,52.8"/>
</g>
</svg>
