<?xml version="1.0" encoding="utf-8"?>
<!-- Generator: Adobe Illustrator 19.2.0, SVG Export Plug-In . SVG Version: 6.00 Build 0)  -->
<svg version="1.1" id="Слой_1" xmlns="http://www.w3.org/2000/svg" xmlns:xlink="http://www.w3.org/1999/xlink" x="0px" y="0px"
	 viewBox="0 0 87.2 72.1" style="enable-background:new 0 0 87.2 72.1;" xml:space="preserve">
<style type="text/css">
	.st0{fill:#356AC2;}
</style>
<g id="_x30_3_1_">
	<path class="st0" d="M83.5,10.5H66.2V2.8C66.2,1.2,65,0,63.5,0H23.7C22.2,0,21,1.2,21,2.8v7.7H3.7c-2,0-3.7,1.7-3.7,3.7v13.3
		c0,0,0,0,0,0.1v34.9c0,2,1.7,3.7,3.7,3.7H9c0.9,0,1.7-0.7,1.7-1.7S9.9,62.9,9,62.9H3.7c-0.2,0-0.4-0.2-0.4-0.4V29.7
		c9.1,2.5,19.6,4.1,30.4,4.7c0.4,1.6,1.5,2.8,3,3.4v4.7c0,0.9,0.7,1.7,1.7,1.7h10.5c0.9,0,1.7-0.7,1.7-1.7v-4.7
		c1.5-0.6,2.6-1.8,3-3.4c10.8-0.6,21.3-2.2,30.4-4.7v32.8c0,0.2-0.2,0.4-0.4,0.4H50.2c-0.9,0-1.7,0.7-1.7,1.7s0.7,1.7,1.7,1.7h33.3
		c2,0,3.7-1.7,3.7-3.7V27.6c0,0,0,0,0-0.1V14.2C87.2,12.1,85.5,10.5,83.5,10.5L83.5,10.5z M34.1,31.2c-11-0.6-21.6-2.3-30.8-4.9
		V14.2c0-0.2,0.2-0.4,0.4-0.4h33l0,15.1C35.6,29.3,34.7,30.1,34.1,31.2L34.1,31.2z M47.2,40.9H40v-2.7h7.2V40.9z M48.8,34.9
		C48.8,34.9,48.8,34.9,48.8,34.9l-10.4,0c0,0,0,0,0,0c-0.8,0-1.5-0.7-1.5-1.5c0-0.1,0-0.1,0-0.2c0,0,0,0,0,0
		c0.1-0.7,0.7-1.3,1.5-1.3h10.4c0,0,0,0,0,0c0.7,0,1.3,0.6,1.5,1.3c0,0,0,0,0,0.1c0,0.1,0,0.1,0,0.2C50.3,34.2,49.7,34.9,48.8,34.9
		L48.8,34.9z M40,13.8h7.2v14.8h-7.1L40,13.8z M48.8,10.5H24.3V3.3h38.6v7.2H48.8z M83.9,26.3c-9.2,2.6-19.8,4.3-30.8,4.9
		c-0.5-1.1-1.5-1.9-2.6-2.3V13.8h33c0.2,0,0.4,0.2,0.4,0.4V26.3z M41.9,57.4h-9.3c-0.5,0-1,0.1-1.4,0.2c0.1-0.4,0.2-0.9,0.2-1.4
		c0-1.1-0.4-2.1-1-2.8c0.6-0.8,1-1.8,1-2.8c0-2.5-2-4.5-4.5-4.5h-9.3c-2.5,0-4.5,2-4.5,4.5c0,1.1,0.4,2.1,1,2.8
		c-0.6,0.8-1,1.8-1,2.8c0,1.1,0.4,2.1,1,2.8c-0.6,0.8-1,1.8-1,2.8c0,1.1,0.4,2.1,1,2.8c-0.6,0.8-1,1.8-1,2.8c0,2.5,2,4.5,4.5,4.5
		h9.3c1.1,0,2.1-0.4,2.8-1c0.8,0.6,1.8,1,2.8,1h9.3c2.5,0,4.5-2,4.5-4.5c0-1.1-0.4-2.1-1-2.8c0.6-0.8,1-1.8,1-2.8
		C46.4,59.4,44.4,57.4,41.9,57.4L41.9,57.4z M26.9,68.8h-9.3c-0.7,0-1.2-0.5-1.2-1.2c0-0.7,0.5-1.2,1.2-1.2c0,0,0,0,0,0h9.3
		c0,0,0,0,0,0c0.7,0,1.2,0.5,1.2,1.2C28.1,68.2,27.6,68.8,26.9,68.8L26.9,68.8z M26.9,63.1h-9.3c-0.7,0-1.2-0.5-1.2-1.2
		c0-0.7,0.5-1.2,1.2-1.2h9.3c0.7,0,1.2,0.5,1.2,1.2C28.1,62.5,27.6,63.1,26.9,63.1L26.9,63.1z M26.9,57.4h-9.3
		c-0.7,0-1.2-0.5-1.2-1.2c0-0.7,0.5-1.2,1.2-1.2h9.3c0.7,0,1.2,0.5,1.2,1.2C28.1,56.9,27.6,57.4,26.9,57.4L26.9,57.4z M26.9,51.7
		h-9.3c-0.7,0-1.2-0.5-1.2-1.2c0-0.7,0.5-1.2,1.2-1.2h9.3c0.7,0,1.2,0.5,1.2,1.2C28.1,51.2,27.6,51.7,26.9,51.7L26.9,51.7z
		 M41.9,68.8h-9.3c-0.7,0-1.2-0.5-1.2-1.2c0-0.7,0.5-1.2,1.2-1.2c0,0,0,0,0,0h9.3c0,0,0,0,0,0c0.7,0,1.2,0.5,1.2,1.2
		C43.1,68.2,42.6,68.8,41.9,68.8L41.9,68.8z M41.9,63.1h-9.3c-0.7,0-1.2-0.5-1.2-1.2c0-0.7,0.5-1.2,1.2-1.2h9.3
		c0.7,0,1.2,0.5,1.2,1.2C43.1,62.5,42.6,63.1,41.9,63.1L41.9,63.1z M41.9,63.1"/>
</g>
</svg>
