<?xml version="1.0" encoding="utf-8"?>
<!-- Generator: Adobe Illustrator 19.2.0, SVG Export Plug-In . SVG Version: 6.00 Build 0)  -->
<svg version="1.1" id="Слой_1" xmlns="http://www.w3.org/2000/svg" xmlns:xlink="http://www.w3.org/1999/xlink" x="0px" y="0px"
	 viewBox="0 0 99 98.8" style="enable-background:new 0 0 99 98.8;" xml:space="preserve">
<style type="text/css">
	.st0{fill:#356AC2;}
</style>
<g id="_x30_2_5_">
	<path class="st0" d="M19.3,24.6c-0.6,0.5-0.9,1.2-0.7,1.9c0.2,0.7,0.7,1.3,1.5,1.5c0.6,0.1,1.1,0.1,2.9-1.2
		c0.8-0.6,1.9-1.6,2.9-2.9l0.5-0.6c3.9-5.1,12.9-17.2,26-16.5c10.8,0.8,18.4,8.9,22.1,23.5c0.1,0.5,0.2,0.8,0.3,1
		c0.6,2.4,1.5,5.4,2.9,6.3c0.3,0.2,0.7,0.4,1.1,0.4c0.6,0,1.2-0.3,1.5-0.8c0.6-0.8,0.4-2-0.3-2.6c-0.4-0.5-1.1-2.5-1.5-4.3
		c0-0.1-0.1-0.2-0.1-0.3c0-0.1-0.1-0.4-0.2-0.6c-0.6-2.3-2.1-8.5-5.9-14.2C67.5,7.7,60.8,3.6,52.7,3.1l0,0
		c-15.1-0.8-25,12.4-29.2,18l-0.4,0.6c-1.2,1.5-2.5,2.5-3,2.8C19.6,24.4,19.5,24.5,19.3,24.6L19.3,24.6z"/>
	<path class="st0" d="M67.7,35.3c1.4-3.6,1.5-7.3,0.1-10.2c-1.2-2.6-3.5-4.4-6.6-5.4c-4.6-1.4-10.1,1.1-15.1,6.9
		c-0.1,0.1-7.3,7.6-14.8,12.3c-0.1,0-5.6,3.4-11.4,4.9c-1,0.3-1.6,1.3-1.3,2.3c0.3,1,1.3,1.6,2.3,1.3c6.3-1.7,12.1-5.2,12.3-5.3
		c8.2-5,15.6-12.9,15.7-13c3.1-3.5,7.6-6.9,11.1-5.8c2.1,0.6,3.5,1.8,4.3,3.4c0.9,1.9,0.8,4.5-0.2,7.1c-1.9,4.8-8,10.7-17,16.5
		c-4.5,2.9-15.9,10-24,13.4c-1,0.4-1.4,1.5-1,2.5c0.3,0.7,1,1.2,1.7,1.2c0.2,0,0.5-0.1,0.7-0.2c8.3-3.6,19.9-10.8,24.5-13.7
		C56.1,49.1,64.8,42.4,67.7,35.3L67.7,35.3z"/>
	<path class="st0" d="M37.1,21.1c-0.9,0.9-1.6,2-2.5,2.9c-1.1,1.3-2.3,2.5-3.5,3.6c-1.3,1.2-2.3,2-3.8,2.9c-1.6,0.9-3.2,1.9-4.9,2.7
		c-0.6,0.3-1.1,0.5-1.7,0.7c-1,0.3-1.6,1.3-1.3,2.3c0.3,1,1.3,1.6,2.3,1.3c1.9-0.6,3.7-1.6,5.5-2.6c1.5-0.8,3-1.6,4.3-2.6
		c2.7-2,4.9-4.4,7-7c0.9-1,1.8-2,2.7-3c0.5-0.5,1.1-1,1.6-1.5c0.3-0.3,0.6-0.5,0.9-0.8c0.1-0.1,0.3-0.2,0.5-0.4c0,0,0.3-0.3,0.4-0.3
		c1.3-1,2.7-1.9,4.2-2.7c1.4-0.7,2.8-1.2,4.5-1.6c0.6-0.1,0.7-0.1,1.1-0.2c1-0.1,1.9-0.8,1.9-1.9c0-1-0.9-2-1.9-1.9
		C47.5,11.8,41.6,16.1,37.1,21.1L37.1,21.1z"/>
	<path class="st0" d="M22.3,57.5c4.1-1.4,25.4-9.3,37.2-26c0.6-0.9,0.4-2-0.4-2.7c-0.9-0.6-2-0.4-2.7,0.4C45.2,44.9,25,52.5,21,53.8
		c-0.1,0-0.1,0-0.2,0.1c-1,0.4-1.5,1.5-1.1,2.5c0.3,0.8,1,1.2,1.8,1.2C21.8,57.6,22,57.6,22.3,57.5L22.3,57.5z"/>
	<path class="st0" d="M74,68.8c-2.6-0.9-5.9-3.2-9-5.4c-4.5-3.2-8.4-6-11.6-5.5c-2.4,0.4-6.6,3.1-13.1,7.4
		c-4.8,3.1-10.1,6.7-12.5,7.3c-1,0.3-1.6,1.3-1.3,2.3c0.2,0.8,1,1.4,1.8,1.4c0.2,0,0.3,0,0.5-0.1c2.9-0.8,8.1-4.2,13.6-7.8
		c4.4-2.9,9.9-6.5,11.7-6.8c1.6-0.3,5.6,2.5,8.7,4.8c3.3,2.4,6.8,4.8,10,5.9c1,0.3,2.1-0.2,2.4-1.2C75.6,70.2,75,69.1,74,68.8
		L74,68.8z"/>
	<path class="st0" d="M69.3,78.1c-1.5-0.6-4-2.1-6.4-3.6c-5.1-3.1-8.3-5.1-10.7-4.7c-2.4,0.4-7.3,3.8-15.6,9.8
		c-1,0.7-1.9,1.4-2.5,1.8C33.2,82,33,83.2,33.6,84c0.4,0.5,1,0.8,1.6,0.8c0.4,0,0.8-0.1,1.1-0.3c0.6-0.4,1.5-1.1,2.5-1.8
		c3.3-2.4,12.1-8.8,14-9.1c1.2-0.1,5.5,2.6,8,4.1c2.7,1.7,5.2,3.2,7.1,3.9c1,0.4,2.1-0.2,2.4-1.1C70.8,79.6,70.2,78.5,69.3,78.1
		L69.3,78.1z"/>
	<path class="st0" d="M62.8,87.6c-1.1-0.7-2.1-1.4-3-2.1c-3.1-2.2-5.8-4.2-8.8-3.6c-3.3,0.6-8.6,5.9-9.7,7c-0.7,0.8-0.7,2,0,2.7
		c0.4,0.4,0.9,0.5,1.3,0.5c0.5,0,1-0.2,1.4-0.6c2.5-2.6,6.2-5.6,7.6-5.9c1.4-0.2,3.5,1.3,5.9,3c0.9,0.7,2,1.4,3.1,2.2
		c0.9,0.6,2.1,0.3,2.6-0.6C64,89.3,63.7,88.1,62.8,87.6L62.8,87.6z"/>
	<path class="st0" d="M79.6,48.3c-1.6-0.7-3.2-1.4-4.6-2.5c-1.5-1.2-2.2-2.8-2.5-4.7c-0.4-2.4-4.1-1.4-3.7,1
		c0.8,4.9,4.4,7.6,8.8,9.4c1,0.4,2,0.3,2.6-0.7C80.7,50.1,80.5,48.7,79.6,48.3L79.6,48.3z"/>
	<path class="st0" d="M75.9,58.2c-1.4-0.4-2.5-1-4-1.9c-2.8-1.6-5.3-4-6.5-7c-0.4-1-1.3-1.6-2.3-1.3c-0.9,0.3-1.7,1.4-1.3,2.3
		c2.3,5.6,7.5,9.8,13.2,11.6C77.2,62.6,78.2,58.9,75.9,58.2L75.9,58.2z"/>
	<path class="st0" d="M3,2.9h18.5V0H0.1v21.4h3V2.9H3z"/>
	<path class="st0" d="M77.6,0v2.9h18.5v18.5H99V0H77.6z"/>
	<path class="st0" d="M2.9,77.4H0v21.4h21.4v-2.9H2.9V77.4z"/>
	<path class="st0" d="M96,95.9H77.5v2.9h21.4V77.4H96V95.9z"/>
</g>
</svg>
