<?xml version="1.0" encoding="utf-8"?>
<!-- Generator: Adobe Illustrator 19.2.0, SVG Export Plug-In . SVG Version: 6.00 Build 0)  -->
<svg version="1.1" id="Слой_1" xmlns="http://www.w3.org/2000/svg" xmlns:xlink="http://www.w3.org/1999/xlink" x="0px" y="0px"
	 viewBox="0 0 44.6 68.6" style="enable-background:new 0 0 44.6 68.6;" xml:space="preserve">
<style type="text/css">
	.st0{fill:#FFFFFF;}
</style>
<g id="_x30_1_x5F_1_1_">
	<path class="st0" d="M37.8,3.8C33.7,1.3,28.1,0,22.3,0C16.4,0,10.9,1.3,6.8,3.8C2.4,6.3,0,9.7,0,13.4v41.7c0,3.7,2.4,7.1,6.8,9.7
		c4.2,2.4,9.7,3.8,15.5,3.8c5.9,0,11.4-1.3,15.5-3.8c4.4-2.5,6.8-6,6.8-9.7V13.4C44.6,9.7,42.2,6.3,37.8,3.8L37.8,3.8z M42.4,55.1
		c0,2.9-2,5.6-5.6,7.8c-3.8,2.2-9,3.5-14.4,3.5c-5.5,0-10.6-1.2-14.4-3.5c-3.6-2.1-5.6-4.9-5.6-7.8v-1c1.1,1.4,2.6,2.7,4.5,3.8
		c4.2,2.4,9.7,3.8,15.5,3.8c5.9,0,11.4-1.3,15.5-3.8c1.9-1.1,3.4-2.4,4.5-3.8V55.1z M42.4,48.2c0,2.9-2,5.6-5.6,7.8
		c-3.8,2.2-9,3.5-14.4,3.5c-5.5,0-10.6-1.2-14.4-3.5c-3.6-2.1-5.6-4.9-5.6-7.8v-1c1.1,1.4,2.6,2.7,4.5,3.8c4.2,2.4,9.7,3.8,15.5,3.8
		c5.9,0,11.4-1.3,15.5-3.8c1.9-1.1,3.4-2.4,4.5-3.8V48.2z M42.4,41.2c0,2.9-2,5.6-5.6,7.8c-3.8,2.2-9,3.5-14.4,3.5
		c-5.5,0-10.6-1.2-14.4-3.5c-3.6-2.1-5.6-4.9-5.6-7.8v-1c1.1,1.4,2.6,2.7,4.5,3.8c4.2,2.4,9.7,3.8,15.5,3.8c5.9,0,11.4-1.3,15.5-3.8
		c1.9-1.1,3.4-2.4,4.5-3.8V41.2z M42.4,34.3c0,2.9-2,5.6-5.6,7.8c-3.8,2.2-9,3.5-14.4,3.5c-5.5,0-10.6-1.2-14.4-3.5
		c-3.6-2.1-5.6-4.9-5.6-7.8v-1c1.1,1.4,2.6,2.7,4.5,3.8c4.2,2.4,9.7,3.8,15.5,3.8c5.9,0,11.4-1.3,15.5-3.8c1.9-1.1,3.4-2.4,4.5-3.8
		V34.3z M42.4,27.3c0,2.9-2,5.6-5.6,7.8c-3.8,2.2-9,3.5-14.4,3.5c-5.5,0-10.6-1.2-14.4-3.5c-3.6-2.1-5.6-4.9-5.6-7.8v-1
		c1.1,1.4,2.6,2.7,4.5,3.8c4.2,2.4,9.7,3.8,15.5,3.8c5.9,0,11.4-1.3,15.5-3.8c1.9-1.1,3.4-2.4,4.5-3.8V27.3z M42.4,20.4
		c0,2.9-2,5.6-5.6,7.8c-3.8,2.2-9,3.5-14.4,3.5c-5.5,0-10.6-1.2-14.4-3.5c-3.6-2.1-5.6-4.9-5.6-7.8v-1c1.1,1.4,2.6,2.7,4.5,3.8
		c4.2,2.4,9.7,3.8,15.5,3.8c5.9,0,11.4-1.3,15.5-3.8c1.9-1.1,3.4-2.4,4.5-3.8V20.4z M36.7,21.2c-3.8,2.2-9,3.5-14.4,3.5
		c-5.5,0-10.6-1.2-14.4-3.5c-3.6-2.1-5.6-4.9-5.6-7.7c0-2.9,2-5.6,5.6-7.8c3.8-2.2,9-3.5,14.4-3.5c5.5,0,10.6,1.2,14.4,3.5
		c3.6,2.1,5.6,4.9,5.6,7.8C42.4,16.3,40.4,19.1,36.7,21.2L36.7,21.2z M36.7,21.2"/>
	<path class="st0" d="M35,6.9c-3.5-1.8-8-2.8-12.7-2.8c-4.7,0-9.2,1-12.7,2.8c-3.5,1.8-5.5,4.2-5.5,6.6c0,2.4,2,4.8,5.5,6.6
		c3.5,1.8,8,2.8,12.7,2.8c4.7,0,9.2-1,12.7-2.8c3.5-1.8,5.5-4.2,5.5-6.6C40.5,11.1,38.5,8.7,35,6.9L35,6.9z M34,18
		c-3.2,1.6-7.3,2.5-11.7,2.5c-4.4,0-8.5-0.9-11.7-2.5c-2.6-1.4-4.3-3.1-4.3-4.6c0-1.5,1.6-3.2,4.3-4.6c3.2-1.6,7.3-2.5,11.7-2.5
		c4.4,0,8.5,0.9,11.7,2.5c2.6,1.4,4.3,3.1,4.3,4.6C38.3,14.9,36.6,16.7,34,18L34,18z M34,18"/>
</g>
</svg>
