<?xml version="1.0" encoding="utf-8"?>
<!-- Generator: Adobe Illustrator 19.2.0, SVG Export Plug-In . SVG Version: 6.00 Build 0)  -->
<svg version="1.1" id="Слой_1" xmlns="http://www.w3.org/2000/svg" xmlns:xlink="http://www.w3.org/1999/xlink" x="0px" y="0px"
	 viewBox="0 0 58.6 65.6" style="enable-background:new 0 0 58.6 65.6;" xml:space="preserve">
<style type="text/css">
	.st0{fill:#FFFFFF;}
</style>
<g id="m_x5F_1_1_">
	<g>
		<path class="st0" d="M16.6,4.9h28.6v6.7c0,0.6,0.5,1.1,1.1,1.1s1.1-0.5,1.1-1.1V1.1c0-0.6-0.5-1.1-1.1-1.1s-1.1,0.5-1.1,1.1v1.8
			H16.6c-0.6,0-1.1,0.5-1.1,1.1C15.5,4.5,16,4.9,16.6,4.9L16.6,4.9z M16.6,4.9"/>
		<path class="st0" d="M57.5,2.8h-7.1c-0.6,0-1.1,0.5-1.1,1.1c0,0.6,0.5,1.1,1.1,1.1h6v13.4H2.1V4.9h9.2v6.7c0,0.6,0.5,1.1,1.1,1.1
			c0.6,0,1.1-0.5,1.1-1.1V1.1c0-0.6-0.5-1.1-1.1-1.1c-0.6,0-1.1,0.5-1.1,1.1v1.8H1.1C0.5,2.8,0,3.3,0,3.9v52.2
			c0,0.6,0.5,1.1,1.1,1.1h46.6c0,0,0.1,0,0.1,0c0,0,0.1,0,0.1,0c0,0,0,0,0,0c0,0,0.1,0,0.1,0c0,0,0,0,0,0c0,0,0.1,0,0.1,0
			c0,0,0,0,0,0c0,0,0.1,0,0.1,0c0,0,0,0,0,0c0,0,0,0,0.1,0c0,0,0,0,0,0c0,0,0,0,0.1,0c0,0,0,0,0,0c0,0,0,0,0.1-0.1c0,0,0,0,0,0
			l9.9-9.9c0,0,0,0,0,0c0,0,0,0,0.1-0.1c0,0,0,0,0,0c0,0,0,0,0-0.1c0,0,0,0,0,0c0,0,0,0,0-0.1c0,0,0,0,0,0c0,0,0-0.1,0-0.1
			c0,0,0,0,0,0c0,0,0-0.1,0-0.1c0,0,0,0,0,0c0,0,0-0.1,0-0.1c0,0,0,0,0,0c0,0,0-0.1,0-0.1c0,0,0-0.1,0-0.1V3.9
			C58.6,3.3,58.1,2.8,57.5,2.8L57.5,2.8z M2.1,20.5h54.3v24.7h-8.8c-0.6,0-1.1,0.5-1.1,1.1V55H2.1V20.5z M55,47.3l-6.3,6.3v-6.3H55z
			 M55,47.3"/>
		<path class="st0" d="M57.5,63.5H1.1C0.5,63.5,0,64,0,64.6c0,0.6,0.5,1.1,1.1,1.1h56.5c0.6,0,1.1-0.5,1.1-1.1
			C58.6,64,58.1,63.5,57.5,63.5L57.5,63.5z M57.5,63.5"/>
		<path class="st0" d="M57.5,49.4c-0.6,0-1.1,0.5-1.1,1.1v8.8H2.1v-0.4c0-0.6-0.5-1.1-1.1-1.1c-0.6,0-1.1,0.5-1.1,1.1v1.4
			c0,0.6,0.5,1.1,1.1,1.1h56.5c0.6,0,1.1-0.5,1.1-1.1v-9.9C58.6,49.9,58.1,49.4,57.5,49.4L57.5,49.4z M57.5,49.4"/>
	</g>
</g>
</svg>
