<?xml version="1.0" encoding="utf-8"?>
<!-- Generator: Adobe Illustrator 19.2.0, SVG Export Plug-In . SVG Version: 6.00 Build 0)  -->
<svg version="1.1" id="Слой_1" xmlns="http://www.w3.org/2000/svg" xmlns:xlink="http://www.w3.org/1999/xlink" x="0px" y="0px"
	 viewBox="0 0 84.4 59.6" style="enable-background:new 0 0 84.4 59.6;" xml:space="preserve">
<style type="text/css">
	.st0{fill:#FFFFFF;}
</style>
<g id="_x30_1_x5F_2_1_">
	<path class="st0" d="M40.8,17.9c0,0.7,0.3,1.8,3,2.7c1.1,0.4,4.6,1.5,4.6,4.9c0,2.3-1.6,4.3-3.8,4.8v0.5c0,0.7-0.5,1.2-1.2,1.2
		c-0.6,0-1.2-0.5-1.2-1.2v-0.5c-2.2-0.5-3.8-2.5-3.8-4.8c0-0.7,0.5-1.2,1.2-1.2c0.7,0,1.2,0.5,1.2,1.2c0,1.4,1.2,2.6,2.6,2.6
		c1.4,0,2.6-1.2,2.6-2.6c0-0.8-0.4-1.8-3-2.7c-3.1-1-4.6-2.7-4.6-4.9c0-2.3,1.6-4.3,3.8-4.8v-0.5c0-0.7,0.5-1.2,1.2-1.2
		c0.7,0,1.2,0.5,1.2,1.2v0.5c2.2,0.5,3.8,2.5,3.8,4.8c0,0.7-0.5,1.2-1.2,1.2c-0.7,0-1.2-0.5-1.2-1.2c0-1.4-1.2-2.6-2.6-2.6
		C42,15.3,40.8,16.5,40.8,17.9L40.8,17.9z M84.4,1.2v41.1c0,0.6-0.5,1.2-1.2,1.2h-1.2v6.7c0,0.3-0.1,0.7-0.4,0.9
		c-0.2,0.2-0.5,0.3-0.8,0.3c0,0-0.1,0-0.1,0L77.4,51v7.4c0,0.4-0.2,0.7-0.4,0.9c-0.2,0.2-0.5,0.3-0.7,0.3c-0.1,0-0.2,0-0.2,0
		l-75-16.2c0,0,0,0,0,0l0,0c0,0,0,0-0.1,0c0,0,0,0,0,0c0,0,0,0,0,0c0,0,0,0,0,0c0,0,0,0,0,0c0,0,0,0,0,0c0,0,0,0,0,0c0,0,0,0,0,0
		c0,0,0,0,0,0c0,0,0,0,0,0c0,0,0,0,0,0c0,0,0,0,0,0c0,0,0,0,0,0c0,0,0,0,0,0c0,0,0,0,0,0c0,0,0,0,0,0c0,0,0,0,0,0c0,0,0,0,0,0
		c0,0,0,0,0,0c0,0,0,0,0,0c0,0,0,0,0,0c0,0,0,0,0,0c0,0,0,0,0,0c0,0,0,0,0,0c0,0,0,0,0,0c0,0,0,0,0,0c0,0,0,0,0,0c0,0,0,0,0,0
		c0,0,0,0,0,0c0,0,0,0,0,0c0,0,0,0,0,0c0,0,0,0,0,0c0,0,0,0,0,0c0,0,0,0,0,0c0,0,0,0,0,0c0,0,0,0,0,0c0,0,0,0,0,0c0,0,0,0,0,0
		c0,0,0,0,0,0c0,0,0,0,0,0c0,0,0,0,0-0.1c0,0,0,0,0,0c0,0,0,0,0,0c0,0,0-0.1,0-0.1V1.2C0,0.5,0.5,0,1.2,0h82.1
		C83.9,0,84.4,0.5,84.4,1.2L84.4,1.2z M71,41.1c0.6-5.8,5.2-10.5,11-11V13.4c-5.8-0.6-10.5-5.2-11-11H13.4c-0.6,5.8-5.2,10.5-11,11
		V30c5.8,0.6,10.5,5.2,11,11H71z M11,41.1c-0.5-4.5-4.1-8.1-8.7-8.7v8.7H11z M11,2.4H2.4V11C6.9,10.5,10.5,6.9,11,2.4L11,2.4z
		 M82.1,2.4h-8.7c0.5,4.5,4.1,8.1,8.7,8.7V2.4z M75,50.8l-53.3-5.3L75,57V50.8z M79.7,43.4H25l54.8,5.4V43.4z M82.1,41.1v-8.7
		c-4.5,0.5-8.1,4.1-8.7,8.7h7.5c0,0,0,0,0,0c0,0,0,0,0,0H82.1z M54.5,12.5c-0.5,0.4-0.7,1.1-0.3,1.6c1.6,2.2,2.4,4.9,2.4,7.6
		C56.6,29,50.7,35,43.4,35c-7.3,0-13.2-5.9-13.2-13.2c0-7.3,5.9-13.2,13.2-13.2c2.7,0,5.4,0.8,7.6,2.4c0.5,0.4,1.3,0.2,1.6-0.3
		c0.4-0.5,0.2-1.3-0.3-1.6c-2.6-1.9-5.7-2.8-9-2.8c-8.6,0-15.6,7-15.6,15.6c0,8.6,7,15.6,15.6,15.6c8.6,0,15.6-7,15.6-15.6
		c0-3.2-1-6.3-2.8-9C55.8,12.2,55.1,12.1,54.5,12.5L54.5,12.5z M54.5,12.5"/>
</g>
</svg>
