<?xml version="1.0" encoding="utf-8"?>
<!-- Generator: Adobe Illustrator 19.2.0, SVG Export Plug-In . SVG Version: 6.00 Build 0)  -->
<svg version="1.1" id="Слой_1" xmlns="http://www.w3.org/2000/svg" xmlns:xlink="http://www.w3.org/1999/xlink" x="0px" y="0px"
	 viewBox="0 0 82.8 55.4" style="enable-background:new 0 0 82.8 55.4;" xml:space="preserve">
<style type="text/css">
	.st0{fill:#356AC2;}
</style>
<g id="_x30_1_x5F_3_1_">
	<path class="st0" d="M74.6,0H8.3C3.7,0,0,3.7,0,8.3v38.9c0,4.6,3.7,8.3,8.3,8.3h66.3c4.6,0,8.3-3.7,8.3-8.3V8.3
		C82.8,3.7,79.1,0,74.6,0L74.6,0z M80.6,47.2c0,3.3-2.7,6-6,6H8.3c-3.3,0-6-2.7-6-6V8.3c0-3.3,2.7-6,6-6h66.3c3.3,0,6,2.7,6,6V47.2z
		 M10.9,29h11.2c2.1,0,3.8-1.7,3.8-3.8v-7.5c0-2.1-1.7-3.8-3.8-3.8H10.9c-2.1,0-3.8,1.7-3.8,3.8v7.5C7.1,27.3,8.8,29,10.9,29
		L10.9,29z M13.2,19.9v3.2H9.4v-3.2H13.2z M23.6,19.9v3.2h-3.8v-3.2H23.6z M17.6,18.9v5.1h-2.1v-5.1H17.6z M9.4,25.4h3.8
		c0.1,0.5,0.5,1,1.1,1h1.1v0.5h-4.4C10.1,26.8,9.5,26.1,9.4,25.4L9.4,25.4z M22.1,26.8h-4.4v-0.5h1.1c0.6,0,1-0.4,1.1-1h3.8
		C23.5,26.1,22.9,26.8,22.1,26.8L22.1,26.8z M23.6,17.6h-3.8c-0.1-0.5-0.5-1-1.1-1h-1.1v-0.5h4.4C22.9,16.2,23.5,16.8,23.6,17.6
		L23.6,17.6z M10.9,16.2h4.4v0.5h-1.1c-0.6,0-1,0.4-1.1,1H9.4C9.5,16.8,10.1,16.2,10.9,16.2L10.9,16.2z M7.3,34.5
		c0-0.6,0.5-1.1,1.1-1.1h9.2c0.6,0,1.1,0.5,1.1,1.1c0,0.6-0.5,1.1-1.1,1.1H8.5C7.8,35.6,7.3,35.1,7.3,34.5L7.3,34.5z M21.7,33.4h9.2
		c0.6,0,1.1,0.5,1.1,1.1c0,0.6-0.5,1.1-1.1,1.1h-9.2c-0.6,0-1.1-0.5-1.1-1.1C20.6,33.9,21.1,33.4,21.7,33.4L21.7,33.4z M45.3,34.5
		c0,0.6-0.5,1.1-1.1,1.1H35c-0.6,0-1.1-0.5-1.1-1.1c0-0.6,0.5-1.1,1.1-1.1h9.2C44.8,33.4,45.3,33.9,45.3,34.5L45.3,34.5z M57.4,35.6
		h-9.2c-0.6,0-1.1-0.5-1.1-1.1c0-0.6,0.5-1.1,1.1-1.1h9.2c0.6,0,1.1,0.5,1.1,1.1C58.5,35.1,58,35.6,57.4,35.6L57.4,35.6z M39.3,46.9
		c0,0.6-0.5,1.1-1.1,1.1h-2.3c-0.6,0-1.1-0.5-1.1-1.1c0-0.6,0.5-1.1,1.1-1.1h2.3C38.8,45.8,39.3,46.3,39.3,46.9L39.3,46.9z M32,46.9
		c0,0.6-0.5,1.1-1.1,1.1H8.6c-0.6,0-1.1-0.5-1.1-1.1c0-0.6,0.5-1.1,1.1-1.1h22.3C31.5,45.8,32,46.3,32,46.9L32,46.9z M18.7,40.4
		c0,0.6-0.5,1.1-1.1,1.1H13c-0.6,0-1.1-0.5-1.1-1.1c0-0.6,0.5-1.1,1.1-1.1h4.6C18.2,39.3,18.7,39.8,18.7,40.4L18.7,40.4z M27.7,39.3
		c0.6,0,1.1,0.5,1.1,1.1c0,0.6-0.5,1.1-1.1,1.1h-4.6c-0.6,0-1.1-0.5-1.1-1.1c0-0.6,0.5-1.1,1.1-1.1H27.7z M70.7,37.9
		c-1.5,0-2.9,0.5-4,1.5c-1.1-0.9-2.5-1.5-4-1.5c-3.5,0-6.3,2.8-6.3,6.3c0,3.5,2.8,6.3,6.3,6.3c1.5,0,2.9-0.5,4-1.5
		c1.1,0.9,2.5,1.5,4,1.5c3.5,0,6.3-2.8,6.3-6.3C77,40.8,74.1,37.9,70.7,37.9L70.7,37.9z M62.6,48.3c-2.2,0-4.1-1.8-4.1-4.1
		c0-2.2,1.8-4.1,4.1-4.1c1.2,0,2.4,0.5,3.2,1.5c0.6,0.7,0.9,1.6,0.9,2.6c0,0.1,0,0.2,0,0.4c-0.1,0.8-0.4,1.6-0.9,2.2
		C65,47.8,63.8,48.3,62.6,48.3L62.6,48.3z M70.7,48.3c-1,0-1.9-0.3-2.6-0.9c0,0,0,0,0,0c0.1-0.1,0.1-0.2,0.2-0.3c0,0,0,0,0-0.1
		c0-0.1,0.1-0.2,0.1-0.3c0,0,0,0,0-0.1c0-0.1,0.1-0.2,0.1-0.3c0,0,0-0.1,0-0.1c0-0.1,0.1-0.2,0.1-0.3c0,0,0,0,0,0
		c0-0.1,0.1-0.2,0.1-0.4c0,0,0-0.1,0-0.1c0-0.1,0-0.2,0.1-0.3c0,0,0,0,0,0c0-0.1,0-0.2,0-0.4c0,0,0-0.1,0-0.1c0-0.1,0-0.2,0-0.4
		c0-0.1,0-0.2,0-0.4c0,0,0-0.1,0-0.1c0-0.1,0-0.2,0-0.4c0,0,0,0,0,0c0-0.1,0-0.2-0.1-0.3c0,0,0-0.1,0-0.1c0-0.1-0.1-0.2-0.1-0.4
		c0,0,0,0,0,0c0-0.1-0.1-0.2-0.1-0.3c0,0,0-0.1,0-0.1c0-0.1-0.1-0.2-0.1-0.3c0,0,0,0,0-0.1c0-0.1-0.1-0.2-0.1-0.3c0,0,0,0,0-0.1
		c-0.1-0.1-0.1-0.2-0.2-0.3c0,0,0,0,0,0c0.7-0.6,1.6-0.9,2.6-0.9c2.2,0,4.1,1.8,4.1,4.1C74.7,46.5,72.9,48.3,70.7,48.3L70.7,48.3z
		 M70.7,48.3"/>
</g>
</svg>
