<?xml version="1.0" encoding="utf-8"?>
<!-- Generator: Adobe Illustrator 19.2.0, SVG Export Plug-In . SVG Version: 6.00 Build 0)  -->
<svg version="1.1" id="Слой_1" xmlns="http://www.w3.org/2000/svg" xmlns:xlink="http://www.w3.org/1999/xlink" x="0px" y="0px"
	 viewBox="0 0 68.9 68.9" style="enable-background:new 0 0 68.9 68.9;" xml:space="preserve">
<style type="text/css">
	.st0{fill:#356AC2;}
</style>
<g id="_x31_8_x2B__1_">
	<path class="st0" d="M21.8,46.2V27.5h-4.3v-4.8h10.3v23.5H21.8z M21.8,46.2"/>
	<path class="st0" d="M50.2,28.8c0,2-1.1,3.9-2.9,4.9c2.6,1.1,4.2,3.3,4.2,5.9c0,4.2-3.8,6.9-9.6,6.9c-5.9,0-9.6-2.6-9.6-6.8
		c0-2.7,1.7-5,4.5-6c-2-1.1-3.2-3-3.2-5c0-3.8,3.3-6.1,8.4-6.1C46.9,22.5,50.2,24.9,50.2,28.8L50.2,28.8z M37.8,39
		c0,2,1.4,3.1,4,3.1c2.6,0,4-1.1,4-3.1c0-1.9-1.4-3-4-3C39.2,36,37.8,37.1,37.8,39L37.8,39z M38.4,29.1c0,1.7,1.2,2.6,3.4,2.6
		c2.2,0,3.4-0.9,3.4-2.6c0-1.7-1.2-2.7-3.4-2.7C39.6,26.4,38.4,27.3,38.4,29.1L38.4,29.1z M38.4,29.1"/>
	<path class="st0" d="M61.4,25.3c1,2.9,1.5,6,1.5,9.1c0,15.7-12.7,28.4-28.4,28.4C18.8,62.9,6,50.1,6,34.5C6,18.8,18.8,6,34.5,6
		c3.1,0,6.2,0.5,9.1,1.5V1.2c-3-0.8-6-1.2-9.1-1.2C15.5,0,0,15.5,0,34.5c0,19,15.5,34.5,34.5,34.5c19,0,34.5-15.5,34.5-34.5
		c0-3.1-0.4-6.2-1.2-9.1H61.4z M61.4,25.3"/>
	<path class="st0" d="M59.6,9.2V2.6h-4.8v6.6h-6.6V14h6.6v6.6h4.8V14h6.6V9.2H59.6z M59.6,9.2"/>
</g>
</svg>
