<?xml version="1.0" encoding="utf-8"?>
<!-- Generator: Adobe Illustrator 19.2.0, SVG Export Plug-In . SVG Version: 6.00 Build 0)  -->
<svg version="1.1" id="Слой_1" xmlns="http://www.w3.org/2000/svg" xmlns:xlink="http://www.w3.org/1999/xlink" x="0px" y="0px"
	 viewBox="0 0 31.2 30" style="enable-background:new 0 0 31.2 30;" xml:space="preserve">
<style type="text/css">
	.st0{fill:#4284F3;}
</style>
<g>
	<g>
		<path class="st0" d="M28.6,0H2.6C1.2,0,0,1.2,0,2.6v21c0,1.4,1.2,2.6,2.6,2.6H11v2h-0.7c-0.5,0-0.9,0.4-0.9,0.9S9.8,30,10.3,30
			h10.6c0.5,0,0.9-0.4,0.9-0.9s-0.4-0.9-0.9-0.9h-0.7v-2h8.4c1.4,0,2.6-1.2,2.6-2.6v-21C31.2,1.2,30.1,0,28.6,0L28.6,0z M28,19.8
			c0,0.5-0.4,0.9-0.9,0.9H4.2c-0.5,0-0.9-0.4-0.9-0.9V3.9C3.2,3.4,3.7,3,4.2,3h22.9C27.6,3,28,3.4,28,3.9V19.8z M28,19.8"/>
	</g>
	<g>
		<path class="st0" d="M20,12.9h-0.5c-0.1,0-0.1,0-0.2,0.1c0,0-0.1,0.1-0.1,0.2v2.3c0,0.3-0.1,0.6-0.3,0.8c-0.2,0.2-0.5,0.3-0.8,0.3
			h-6c-0.3,0-0.6-0.1-0.8-0.3c-0.2-0.2-0.3-0.5-0.3-0.8v-6c0-0.3,0.1-0.6,0.3-0.8c0.2-0.2,0.5-0.3,0.8-0.3h5c0.1,0,0.1,0,0.2-0.1
			c0,0,0.1-0.1,0.1-0.2V7.6c0-0.1,0-0.1-0.1-0.2c0,0-0.1-0.1-0.2-0.1h-5c-0.6,0-1.1,0.2-1.5,0.6c-0.4,0.4-0.6,0.9-0.6,1.5v6
			c0,0.6,0.2,1.1,0.6,1.5c0.4,0.4,0.9,0.6,1.5,0.6h6c0.6,0,1.1-0.2,1.5-0.6c0.4-0.4,0.6-0.9,0.6-1.5v-2.3c0-0.1,0-0.1-0.1-0.2
			C20.2,12.9,20.1,12.9,20,12.9L20,12.9z M20,12.9"/>
		<path class="st0" d="M22.9,6.6c-0.1-0.1-0.2-0.1-0.3-0.1h-3.7c-0.1,0-0.2,0-0.3,0.1c-0.1,0.1-0.1,0.2-0.1,0.3c0,0.1,0,0.2,0.1,0.3
			l1.3,1.3l-4.7,4.7c0,0-0.1,0.1-0.1,0.2c0,0.1,0,0.1,0.1,0.2l0.8,0.8c0,0,0.1,0.1,0.2,0.1c0.1,0,0.1,0,0.2-0.1L21,9.7l1.3,1.3
			c0.1,0.1,0.2,0.1,0.3,0.1c0.1,0,0.2,0,0.3-0.1c0.1-0.1,0.1-0.2,0.1-0.3V7C23,6.8,23,6.7,22.9,6.6L22.9,6.6z M22.9,6.6"/>
	</g>
</g>
</svg>
