<?xml version="1.0" encoding="utf-8"?>
<!-- Generator: Adobe Illustrator 19.2.0, SVG Export Plug-In . SVG Version: 6.00 Build 0)  -->
<svg version="1.1" id="Слой_1" xmlns="http://www.w3.org/2000/svg" xmlns:xlink="http://www.w3.org/1999/xlink" x="0px" y="0px"
	 viewBox="0 0 34.9 29.6" style="enable-background:new 0 0 34.9 29.6;" xml:space="preserve">
<style type="text/css">
	.st0{fill:#FFFFFF;}
</style>
<g>
	<path class="st0" d="M34.1,29.6l-10.8-5.2L23.2,1c0-0.5,0.6-0.9,1.1-0.7l10.2,4.9c0.3,0.1,0.4,0.4,0.4,0.7V29
		C34.9,29.5,34.5,29.8,34.1,29.6z"/>
	<path class="st0" d="M23.3,24.4l-11.6-5.6L22.9,0.4c0.2-0.3,0.6-0.4,1-0.3l10.3,5c0.4,0.2,0.5,0.7,0.3,1.1L23.3,24.4z"/>
	<path class="st0" d="M23.3,24.4l-11.6-5.6L1,1.4C0.7,0.9,1.2,0.4,1.7,0.6l9.9,4.8L23.3,24.4z"/>
	<path class="st0" d="M10.8,29.6L0.3,24.5C0.1,24.4,0,24.2,0,24V0.7C0,0.3,0.4,0,0.8,0.2l10.9,5.2V29C11.7,29.5,11.2,29.8,10.8,29.6
		z"/>
</g>
</svg>
