<?xml version="1.0" encoding="utf-8"?>
<!-- Generator: Adobe Illustrator 19.2.0, SVG Export Plug-In . SVG Version: 6.00 Build 0)  -->
<svg version="1.1" id="Слой_1" xmlns="http://www.w3.org/2000/svg" xmlns:xlink="http://www.w3.org/1999/xlink" x="0px" y="0px"
	 viewBox="0 0 28.8 28.8" style="enable-background:new 0 0 28.8 28.8;" xml:space="preserve">
<style type="text/css">
	.st0{fill:#FFFFFF;}
</style>
<g>
	<path class="st0" d="M20.3,0H8.6C3.9,0,0,3.9,0,8.6v11.7c0,4.7,3.9,8.6,8.6,8.6h11.7c4.7,0,8.6-3.9,8.6-8.6V8.6
		C28.8,3.9,25,0,20.3,0z M25.9,20.3c0,3.1-2.5,5.7-5.7,5.7H8.6c-3.1,0-5.7-2.5-5.7-5.7V8.6c0-3.1,2.5-5.7,5.7-5.7h11.7
		c3.1,0,5.7,2.5,5.7,5.7V20.3L25.9,20.3z"/>
	<path class="st0" d="M14.4,7C10.3,7,7,10.3,7,14.4c0,4.1,3.3,7.5,7.5,7.5s7.5-3.3,7.5-7.5C21.9,10.3,18.5,7,14.4,7z M14.4,19
		c-2.5,0-4.6-2-4.6-4.6c0-2.5,2-4.6,4.6-4.6s4.6,2,4.6,4.6C19,16.9,16.9,19,14.4,19z"/>
	<circle class="st0" cx="21.9" cy="7" r="1.8"/>
</g>
</svg>
