<?xml version="1.0" encoding="utf-8"?>
<!-- Generator: Adobe Illustrator 19.2.0, SVG Export Plug-In . SVG Version: 6.00 Build 0)  -->
<svg version="1.1" id="Слой_1" xmlns="http://www.w3.org/2000/svg" xmlns:xlink="http://www.w3.org/1999/xlink" x="0px" y="0px"
	 viewBox="0 0 29.6 29.6" style="enable-background:new 0 0 29.6 29.6;" xml:space="preserve">
<style type="text/css">
	.st0{fill:#FFFFFF;}
</style>
<path class="st0" d="M26.9,0H2.7C1.2,0,0,1.2,0,2.7v24.2c0,1.5,1.2,2.7,2.7,2.7h24.2c1.5,0,2.7-1.2,2.7-2.7V2.7
	C29.6,1.2,28.4,0,26.9,0z M9.1,25.5c0,0.4-0.3,0.8-0.8,0.8H5.1c-0.4,0-0.8-0.3-0.8-0.8V11.6c0-0.4,0.3-0.8,0.8-0.8h3.3
	c0.4,0,0.8,0.3,0.8,0.8V25.5z M6.7,9.6C5,9.6,3.6,8.1,3.6,6.4S5,3.3,6.7,3.3c1.7,0,3.1,1.4,3.1,3.1S8.5,9.6,6.7,9.6z M26.5,25.6
	c0,0.4-0.3,0.7-0.7,0.7h-3.6c-0.4,0-0.7-0.3-0.7-0.7v-6.5c0-1,0.3-4.3-2.5-4.3c-2.2,0-2.6,2.2-2.7,3.3v7.5c0,0.4-0.3,0.7-0.7,0.7
	h-3.4c-0.4,0-0.7-0.3-0.7-0.7v-14c0-0.4,0.3-0.7,0.7-0.7h3.4c0.4,0,0.7,0.3,0.7,0.7v1.2c0.8-1.2,2-2.2,4.6-2.2
	c5.7,0,5.7,5.3,5.7,8.2V25.6L26.5,25.6z"/>
</svg>
