<?xml version="1.0" encoding="utf-8"?>
<!-- Generator: Adobe Illustrator 19.2.0, SVG Export Plug-In . SVG Version: 6.00 Build 0)  -->
<svg version="1.1" id="Слой_1" xmlns="http://www.w3.org/2000/svg" xmlns:xlink="http://www.w3.org/1999/xlink" x="0px" y="0px"
	 viewBox="0 0 23.3 32.3" style="enable-background:new 0 0 23.3 32.3;" xml:space="preserve">
<style type="text/css">
	.st0{fill:#FFFFFF;}
</style>
<g>
	<path class="st0" d="M22.4,16.9c-0.7-1-1.9-1.6-3.4-2c1.9-1,2.8-2.6,2.5-5c-0.1-0.9-0.3-1.6-0.7-2.2c-0.4-0.6-0.9-1.1-1.6-1.5
		c-0.7-0.4-1.4-0.7-2.2-0.9c-0.8-0.2-1.7-0.3-2.7-0.4V0h-3v4.7c-0.5,0-1.3,0-2.4,0V0H6v4.9c-0.4,0-1.1,0-1.9,0L0,4.9v3.2h2.2
		c1,0,1.6,0.4,1.7,1.3v5.6c0.1,0,0.2,0,0.3,0H3.9v7.8c-0.1,0.7-0.5,1-1.1,1H0.6L0,27.3h3.9c0.2,0,0.6,0,1.1,0c0.5,0,0.8,0,1,0v4.9h3
		v-4.9c0.5,0,1.3,0,2.4,0v4.9h3v-4.9c1.1-0.1,2-0.1,2.8-0.3c0.8-0.1,1.6-0.4,2.4-0.7c0.7-0.3,1.4-0.7,1.9-1.1c0.5-0.5,0.9-1,1.3-1.7
		c0.3-0.7,0.5-1.5,0.6-2.4C23.4,19.3,23.1,17.9,22.4,16.9L22.4,16.9z M9,8.3c0.1,0,0.3,0,0.8,0c0.4,0,0.8,0,1,0c0.3,0,0.7,0,1.1,0
		c0.5,0,0.9,0.1,1.2,0.2c0.3,0.1,0.7,0.2,1.1,0.3c0.4,0.1,0.7,0.3,0.9,0.5c0.2,0.2,0.4,0.5,0.6,0.8c0.2,0.3,0.2,0.7,0.2,1.1
		c0,0.4-0.1,0.7-0.2,1c-0.1,0.3-0.3,0.5-0.5,0.7c-0.2,0.2-0.5,0.4-0.7,0.5c-0.2,0.1-0.6,0.3-0.9,0.4c-0.4,0.1-0.7,0.2-1,0.2
		c-0.3,0.1-0.6,0.1-1.1,0.1c-0.4,0-0.8,0-1,0c-0.2,0-0.5,0-0.9,0c-0.4,0-0.6,0-0.7,0L9,8.3L9,8.3z M17.2,21.5
		c-0.1,0.3-0.3,0.6-0.5,0.8c-0.2,0.2-0.4,0.4-0.8,0.6c-0.3,0.2-0.6,0.3-0.9,0.4c-0.3,0.1-0.7,0.2-1.1,0.3c-0.4,0.1-0.8,0.1-1.1,0.2
		c-0.3,0-0.7,0.1-1.1,0.1c-0.4,0-0.8,0-1,0c-0.2,0-0.6,0-0.9,0c-0.4,0-0.6,0-0.7,0v-6.6c0.1,0,0.4,0,0.9,0c0.5,0,0.9,0,1.3,0
		c0.3,0,0.8,0,1.3,0.1c0.6,0,1,0.1,1.4,0.2c0.4,0.1,0.8,0.2,1.3,0.4c0.5,0.2,0.8,0.4,1.1,0.6c0.3,0.2,0.5,0.5,0.7,0.9
		c0.2,0.4,0.3,0.8,0.3,1.2C17.4,20.9,17.3,21.2,17.2,21.5L17.2,21.5z M17.2,21.5"/>
</g>
</svg>
