<?xml version="1.0" encoding="utf-8"?>
<!-- Generator: Adobe Illustrator 19.2.0, SVG Export Plug-In . SVG Version: 6.00 Build 0)  -->
<svg version="1.1" id="Слой_1" xmlns="http://www.w3.org/2000/svg" xmlns:xlink="http://www.w3.org/1999/xlink" x="0px" y="0px"
	 viewBox="0 0 30.3 30.3" style="enable-background:new 0 0 30.3 30.3;" xml:space="preserve">
<style type="text/css">
	.st0{fill:#FFFFFF;}
</style>
<path class="st0" d="M26.2,0H4.1C1.8,0,0,1.8,0,4.1v22.1c0,2.3,1.8,4.1,4.1,4.1H15l0-10.8h-2.8c-0.4,0-0.7-0.3-0.7-0.7l0-3.5
	c0-0.4,0.3-0.7,0.7-0.7H15v-3.4c0-3.9,2.4-6,5.9-6h2.9c0.4,0,0.7,0.3,0.7,0.7v2.9c0,0.4-0.3,0.7-0.7,0.7l-1.8,0
	c-1.9,0-2.3,0.9-2.3,2.2v2.9h4.2c0.4,0,0.7,0.3,0.7,0.7l-0.4,3.5c0,0.3-0.3,0.6-0.7,0.6h-3.7l0,10.8h6.5c2.3,0,4.1-1.8,4.1-4.1V4.1
	C30.3,1.8,28.4,0,26.2,0z"/>
</svg>
