<?xml version="1.0" encoding="utf-8"?>
<!-- Generator: Adobe Illustrator 19.2.0, SVG Export Plug-In . SVG Version: 6.00 Build 0)  -->
<svg version="1.1" id="Слой_1" xmlns="http://www.w3.org/2000/svg" xmlns:xlink="http://www.w3.org/1999/xlink" x="0px" y="0px"
	 viewBox="0 0 33.6 28" style="enable-background:new 0 0 33.6 28;" xml:space="preserve">
<style type="text/css">
	.st0{fill:#FFFFFF;}
</style>
<path class="st0" d="M33.1,3.3c-0.7,0.3-1.5,0.6-2.3,0.8c0.9-0.8,1.5-1.9,1.9-3l0,0c0.1-0.3-0.3-0.6-0.6-0.4l0,0
	C31,1.2,29.8,1.7,28.6,2c-0.1,0-0.1,0-0.2,0c-0.2,0-0.4-0.1-0.6-0.2c-1.3-1.2-3-1.8-4.8-1.8c-0.8,0-1.5,0.1-2.3,0.4
	c-2.4,0.7-4.2,2.7-4.7,5.1c-0.2,0.9-0.3,1.8-0.2,2.7c0,0.1,0,0.2-0.1,0.2c-0.1,0.1-0.1,0.1-0.2,0.1c0,0,0,0,0,0
	c-5.1-0.5-9.8-3-13.1-7l0,0c-0.2-0.2-0.5-0.2-0.6,0l0,0c-0.6,1.1-1,2.4-1,3.6c0,2,0.8,3.8,2.2,5.2c-0.6-0.1-1.1-0.4-1.7-0.6l0,0
	C1,9.5,0.7,9.7,0.7,9.9l0,0c0,2.9,1.7,5.5,4.2,6.7c-0.1,0-0.1,0-0.2,0c-0.4,0-0.8,0-1.2-0.1l0,0c-0.3-0.1-0.5,0.2-0.4,0.5l0,0
	c0.8,2.6,3.1,4.5,5.7,4.9c-2.2,1.5-4.8,2.3-7.5,2.3l-0.8,0c-0.3,0-0.5,0.2-0.5,0.4c-0.1,0.2,0.1,0.5,0.3,0.6c3,1.8,6.5,2.7,10,2.7
	c3.1,0,5.9-0.6,8.5-1.8c2.4-1.1,4.5-2.7,6.3-4.7c1.6-1.9,2.9-4,3.8-6.4c0.9-2.3,1.3-4.7,1.3-7V7.9c0-0.4,0.2-0.7,0.5-1
	c1.1-0.9,2.1-2,2.9-3.2l0,0C33.8,3.5,33.4,3.1,33.1,3.3L33.1,3.3z"/>
</svg>
