<?xml version="1.0" encoding="utf-8"?>
<!-- Generator: Adobe Illustrator 19.2.0, SVG Export Plug-In . SVG Version: 6.00 Build 0)  -->
<svg version="1.1" id="Слой_1" xmlns="http://www.w3.org/2000/svg" xmlns:xlink="http://www.w3.org/1999/xlink" x="0px" y="0px"
	 viewBox="0 0 45.2 28.9" style="enable-background:new 0 0 45.2 28.9;" xml:space="preserve">
<style type="text/css">
	.st0{fill:#FFFFFF;}
</style>
<g>
	<path class="st0" d="M15.9,17.5h7.1c-1.2,3.5-4.6,6-8.5,6c-4.8,0-8.7-3.9-8.9-8.6c-0.2-5.1,3.9-9.3,9-9.3c2.3,0,4.4,0.9,6,2.3
		c0.4,0.3,1,0.3,1.3,0l2.6-2.4c0.4-0.4,0.4-1,0-1.4c-2.5-2.4-5.9-3.9-9.7-4C6.8-0.2,0.1,6.4,0,14.4c-0.1,8,6.4,14.6,14.5,14.6
		c7.7,0,14-6,14.4-13.7c0-0.1,0-3.3,0-3.3H15.9c-0.5,0-1,0.4-1,1v3.6C14.9,17,15.3,17.5,15.9,17.5z"/>
	<path class="st0" d="M40.9,12.3V8.8C40.9,8.3,40.5,8,40,8h-2.9c-0.5,0-0.8,0.4-0.8,0.8v3.5h-3.5c-0.5,0-0.8,0.4-0.8,0.8v2.9
		c0,0.5,0.4,0.8,0.8,0.8h3.5v3.5c0,0.5,0.4,0.8,0.8,0.8H40c0.5,0,0.9-0.4,0.9-0.8v-3.5h3.5c0.5,0,0.8-0.4,0.8-0.8v-2.9
		c0-0.5-0.4-0.8-0.8-0.8H40.9L40.9,12.3z"/>
</g>
</svg>
